<?xml version="1.0" encoding="utf-8"?>
<!-- Generator: Adobe Illustrator 23.0.6, SVG Export Plug-In . SVG Version: 6.00 Build 0)  -->
<svg version="1.1" id="Layer_1" xmlns="http://www.w3.org/2000/svg" xmlns:xlink="http://www.w3.org/1999/xlink" x="0px" y="0px"
	 viewBox="0 0 825 247" style="enable-background:new 0 0 825 247;" xml:space="preserve">
<style type="text/css">
	.st0{stroke:#FF871D;stroke-width:8;stroke-miterlimit:10;}
	.st1{fill:#FF871D;}
	.st2{fill-rule:evenodd;clip-rule:evenodd;fill:#FFFFFF;}
	.st3{display:none;}
	.st4{display:inline;fill:#FF871D;}
	.st5{fill:#FFFFFF;}
</style>
<path class="st0" d="M803.8,239.5H22.2c-7.8,0-14.2-6.3-14.2-14.2V22.7c0-7.8,6.3-14.2,14.2-14.2h781.7c7.8,0,14.2,6.3,14.2,14.2
	v202.7C818,233.2,811.7,239.5,803.8,239.5z"/>
<g>
	<g>
		<path class="st1" d="M166.5,117.1c34.7-19.6,66.5-24.5,75.4-10.1c10.4,16.8-14.5,53.7-55.8,82.5c-13.6,9.4-27.2,16.8-39.8,21.9
			c18.1-14.5,35.3-31.9,47.8-49.3c26.6-37,21.7-60-11-51.2C177.9,112.3,172.3,114.4,166.5,117.1z"/>
		<path class="st1" d="M151.7,120.7c-34.3-20.3-54.4-45.4-46.5-60.3c9.3-17.5,53.8-14.3,99.3,7.1c15,7,28.2,15.1,38.8,23.5
			c-21.6-8.4-45.3-14.6-66.6-16.8c-45.4-4.5-62.8,11.2-38.8,35.1C141.8,113.2,146.4,117,151.7,120.7z"/>
		<path class="st1" d="M162.1,130.4c-0.4,39.9-12.1,69.8-29,70.4c-19.8,0.6-39.3-39.5-43.5-89.6c-1.4-16.5-1-32,0.9-45.4
			c3.5,22.9,10,46.5,18.8,66c18.8,41.5,41.1,48.7,49.8,16C160.6,142.7,161.6,136.8,162.1,130.4z"/>
	</g>
	<path class="st2" d="M726.3,82.1v20.7h2l10.6-10h5.5l-12.8,11.5l15.1,13.5h-5.9l-12.7-12.1h-1.8v12.1h-4.4V82.1H726.3z M696.8,92.8
		h4.4l-0.4,2.9c1.8-2.3,4.7-3.5,8.7-3.5c5.5,0,8.3,2.4,8.3,7.1l0,1.7h-4.3l0.1-0.6c0.1-0.7,0.1-1.1,0.1-1.3c0-2.6-1.7-3.8-5-3.8
		c-4.9,0-7.3,2.5-7.3,7.6v15h-4.4V92.8z M676.2,95.4c-3.9,0-6.3,0.5-7.2,1.6c-0.9,1-1.4,3.8-1.4,8.2c0,4.4,0.5,7.2,1.4,8.3
		c0.9,1,3.4,1.6,7.2,1.6c3.9,0,6.3-0.5,7.2-1.6c0.9-1.1,1.4-3.8,1.4-8.3c0-4.4-0.5-7.2-1.4-8.2C682.5,96,680.1,95.4,676.2,95.4z
		 M676.2,92.4c5.5,0,9.1,0.8,10.8,2.4c1.7,1.6,2.5,5.1,2.5,10.5c0,5.4-0.8,8.9-2.5,10.5c-1.7,1.6-5.2,2.4-10.8,2.4
		c-5.5,0-9.1-0.8-10.8-2.4c-1.7-1.6-2.5-5.1-2.5-10.5c0-5.4,0.8-8.9,2.5-10.5C667.1,93.2,670.7,92.4,676.2,92.4z M659.8,92.8
		l-8.4,25h-6.5l-4-13.9l-1.2-4.2l-0.6-2.1l-0.6-2.1l-0.7,2.1l-0.6,2.1l-1.2,4.2l-4,13.9h-6.6l-8.1-25h4.6l4.2,13.8l1.3,4.3l0.6,2.2
		l0.6,2.2l0.7-2.2l0.6-2.2l1.3-4.3l4.1-13.9h6.4l4.1,13.9l1.3,4.3l0.6,2.1l0.6,2.2l0.8-2.2l0.6-2.2l1.3-4.3l4.2-13.8H659.8z
		 M615.7,92.8v3h-11.5v15.3c0,2.7,1.4,4,4.3,4c2.8,0,4.2-1.2,4.2-3.6l0-1.2l0.1-1.4h4.1l0,1.9c0,4.9-2.8,7.4-8.4,7.4
		c-5.8,0-8.7-2-8.7-6.1v-0.9V95.8h-4.1v-3h4.1v-6h4.4v6H615.7z M588.4,103.1l0-1.2c0-2.7-0.5-4.5-1.6-5.3c-1.1-0.8-3.4-1.2-6.9-1.2
		c-3.6,0-5.9,0.5-6.9,1.4c-1,0.9-1.6,3-1.6,6.2H588.4z M588.4,110.2h4.5l0,0.9c0,2.6-1,4.4-2.9,5.5c-1.9,1-5.2,1.5-9.9,1.5
		c-5.5,0-9.1-0.8-10.9-2.5c-1.7-1.7-2.6-5.2-2.6-10.6c0-5,0.9-8.3,2.6-10c1.7-1.7,5.1-2.6,10.2-2.6c5.5,0,9.1,0.7,10.9,2.2
		c1.7,1.5,2.6,4.6,2.6,9.4v2h-21.6c0,3.9,0.5,6.4,1.5,7.5c1,1.1,3.4,1.6,7.1,1.6c3.5,0,5.8-0.3,6.9-0.8c1.1-0.5,1.6-1.6,1.6-3.3
		V110.2z M559.6,82.1v35.7h-7.9l-17.9-24.3l-2.9-4l-1.4-2l-1.4-2l-0.1,1.3l0,1.4v2.7v26.9h-4.8V82.1h7.9l15.7,21.3l4.1,5.6l2,2.8
		l2,2.8l0.1-1.3l0-1.4v-2.7V82.1H559.6z M496.2,108.7h4.4l0,1.4c0,5.4-4.2,8-12.6,8c-5.4,0-9-0.8-10.7-2.5
		c-1.7-1.7-2.6-5.2-2.6-10.5c0-4.9,0.9-8.3,2.6-10.1c1.8-1.8,5.1-2.7,10.1-2.7c4.9,0,8.2,0.6,10,1.8c1.8,1.2,2.7,3.4,2.7,6.7h-4.4
		v-0.7c0-1.9-0.6-3.2-1.7-3.9c-1.2-0.6-3.4-1-6.9-1c-3.3,0-5.4,0.6-6.4,1.8c-0.9,1.2-1.4,4-1.4,8.2c0,4.1,0.5,6.8,1.6,7.9
		c1.1,1.1,3.6,1.7,7.6,1.7c3.3,0,5.5-0.4,6.4-1.1C495.8,113.2,496.2,111.5,496.2,108.7z M468,92.8v25h-4.4v-25H468z M468,82.1v4.1
		h-4.4v-4.1H468z M410.5,92.8h4.4l-0.1,3.8c1.8-2.7,5.1-4.1,9.9-4.1c5.1,0,8.2,1.4,9.3,4.2c2-2.8,5.4-4.2,10.4-4.2
		c7.1,0,10.6,3,10.6,9v16.3h-4.4v-16.7c0-2.2-0.5-3.7-1.4-4.5c-0.9-0.8-2.7-1.2-5.3-1.2c-3.5,0-5.8,0.5-7.1,1.6
		c-1.2,1.1-1.9,3.2-1.9,6.2v14.5h-4.4v-16.3l-0.1-1.2c0-3.2-2.2-4.8-6.6-4.8c-6,0-9,2.7-9,8.1v14.2h-4.4V92.8z M389.4,105.4
		c-3.4,0-5.6,0.3-6.6,0.9c-1,0.6-1.5,1.9-1.5,3.8c0,2,0.5,3.4,1.5,4c1,0.6,3,1,6.1,1c6.2,0,9.3-1.6,9.3-4.7c0-2-0.6-3.3-1.8-4
		C395.2,105.7,392.9,105.4,389.4,105.4z M382.4,99.8H378c0-2.9,0.8-4.9,2.4-5.9c1.6-1,4.7-1.5,9.3-1.5c5,0,8.4,0.6,10.1,1.9
		c1.8,1.2,2.6,3.6,2.6,7v16.5H398l0.3-2.7c-1.8,2-5.2,3.1-10.3,3.1c-7.6,0-11.4-2.5-11.4-7.6c0-3,0.8-5.1,2.5-6.2
		c1.7-1.1,4.8-1.7,9.2-1.7c5.3,0,8.4,0.9,9.5,2.6l0.1-3.1c0-2.9-0.5-4.7-1.4-5.5c-0.9-0.9-3-1.3-6.2-1.3c-5.4,0-8.1,1.3-8.1,3.8
		C382.3,99.2,382.3,99.4,382.4,99.8z M344.7,92.8h4.2l-0.1,3.4c1.5-2.5,4.8-3.8,10.1-3.8c4.3,0,7.2,0.6,8.7,1.9
		c1.5,1.3,2.3,3.7,2.3,7.2v16.3h-4.4v-15.9v-0.9c0-2.1-0.5-3.6-1.5-4.3c-1-0.7-2.9-1.1-5.7-1.1c-6.2,0-9.3,2.4-9.3,7.3v15h-4.4V92.8
		z M341,92.8l-8.5,26.4c-1.2,3.7-2.5,6.3-4,7.7c-1.4,1.4-3.5,2.1-6.2,2.1c-0.5,0-1.2-0.1-2.1-0.2v-3c0.6,0.1,1.1,0.2,1.5,0.2
		c2.4,0.1,4.1-1.5,5.3-4.8l0.8-2.5l0.3-0.9h-1.7l-10.9-25h4.7l4.6,11.1l2.3,5.5l1.1,2.8l1.2,2.8l0.9-2.8l0.8-2.8l1.7-5.5l3.4-11.1
		H341z M282.8,114.3h14c5.1,0,8.4-0.9,9.9-2.6c1.5-1.7,2.2-5.5,2.2-11.4c0-6.5-0.6-10.6-1.9-12.3c-1.3-1.7-4.4-2.6-9.2-2.6h-14.9
		V114.3z M277.9,117.7V82.1h19.8c6.1,0,10.3,1.1,12.5,3.4c2.2,2.2,3.3,6.6,3.3,12.9c0,7.7-1,12.9-2.9,15.5
		c-1.9,2.6-5.8,3.9-11.6,3.9H277.9z"/>
	<g class="st3">
		<path class="st4" d="M334,168.4h-18.6l-2.8,7.1h-4.4l13.4-33.3h5.8l13.7,33.3h-4.3L334,168.4z M332.8,165.6l-8.1-20.4l-8,20.4
			H332.8z"/>
		<path class="st4" d="M366.3,152.1V177c0,3.4-0.8,5.7-2.4,7s-4.6,1.9-8.9,1.9c-3.8,0-6.4-0.5-7.8-1.6s-2.1-3.1-2.1-6h3.6
			c0,2,0.4,3.3,1.2,3.9c0.8,0.6,2.6,0.9,5.4,0.9c2.9,0,4.8-0.4,5.8-1.2c1-0.8,1.5-2.3,1.5-4.6v-4.7l-0.1,0c-1,2.2-3.8,3.2-8.4,3.2
			c-3.8,0-6.4-0.9-7.8-2.6c-1.4-1.7-2.1-4.8-2.1-9.3c0-4.7,0.7-7.9,2.2-9.6c1.5-1.7,4.2-2.6,8.1-2.6c4.2,0,7,1.2,8.2,3.5l0.1,0
			l-0.2-3.1H366.3z M355.1,154.6c-3,0-4.9,0.6-5.7,1.7c-0.9,1.1-1.3,3.6-1.3,7.4c0,3.9,0.4,6.4,1.3,7.5c0.9,1.1,2.8,1.7,5.7,1.7
			c3,0,5-0.6,5.9-1.9c0.9-1.3,1.4-3.9,1.4-7.9c0-3.5-0.5-5.8-1.4-6.9C360.1,155.2,358.1,154.6,355.1,154.6z"/>
		<path class="st4" d="M390.9,168.4h3.8l0,0.9c0,2.4-0.8,4.1-2.4,5.1c-1.6,1-4.5,1.5-8.5,1.5c-4.7,0-7.8-0.8-9.3-2.4
			c-1.5-1.6-2.2-4.9-2.2-9.9c0-4.7,0.7-7.8,2.2-9.4c1.5-1.6,4.4-2.4,8.7-2.4c4.7,0,7.8,0.7,9.3,2.1c1.5,1.4,2.2,4.3,2.2,8.7v1.8
			h-18.5c0,3.7,0.4,6,1.3,7c0.9,1,2.9,1.5,6.1,1.5c3,0,5-0.2,5.9-0.7c0.9-0.5,1.4-1.5,1.4-3.1V168.4z M390.9,161.8l0-1.1
			c0-2.5-0.5-4.2-1.4-4.9c-0.9-0.8-2.9-1.1-5.9-1.1c-3,0-5,0.4-5.9,1.3c-0.9,0.9-1.4,2.8-1.4,5.8H390.9z"/>
		<path class="st4" d="M400.8,152.1h3.6l-0.1,3.2l0.1,0.1c1.1-2.4,4-3.6,8.5-3.6c3.7,0,6.2,0.6,7.5,1.8s1.9,3.4,1.9,6.7v15.2h-3.8
			v-14.9v-0.9c0-2-0.4-3.3-1.3-4c-0.8-0.7-2.5-1-4.9-1c-5.3,0-7.9,2.3-7.9,6.8v14h-3.8V152.1z"/>
		<path class="st4" d="M442.8,152.1v2.8H433v14.3c0,2.5,1.2,3.7,3.7,3.7c2.4,0,3.6-1.1,3.6-3.3l0-1.1l0.1-1.3h3.5l0,1.7
			c0,4.6-2.4,6.9-7.2,6.9c-5,0-7.4-1.9-7.4-5.7v-0.8V155h-3.5v-2.8h3.5v-5.6h3.8v5.6H442.8z"/>
		<path class="st4" d="M465.1,168.4h3.8l0,0.9c0,2.4-0.8,4.1-2.4,5.1c-1.6,1-4.5,1.5-8.5,1.5c-4.7,0-7.8-0.8-9.3-2.4
			c-1.5-1.6-2.2-4.9-2.2-9.9c0-4.7,0.7-7.8,2.2-9.4c1.5-1.6,4.4-2.4,8.7-2.4c4.7,0,7.8,0.7,9.3,2.1c1.5,1.4,2.2,4.3,2.2,8.7v1.8
			h-18.5c0,3.7,0.4,6,1.3,7c0.9,1,2.9,1.5,6.1,1.5c3,0,5-0.2,5.9-0.7c0.9-0.5,1.4-1.5,1.4-3.1V168.4z M465.1,161.8l0-1.1
			c0-2.5-0.5-4.2-1.4-4.9c-0.9-0.8-2.9-1.1-5.9-1.1c-3,0-5,0.4-5.9,1.3c-0.9,0.9-1.4,2.8-1.4,5.8H465.1z"/>
		<path class="st4" d="M510.3,142.1v33.3h-3.8l0.2-3l-0.1,0c-1.2,2.3-3.9,3.4-8.2,3.4c-3.9,0-6.6-0.9-8.1-2.6
			c-1.4-1.7-2.2-5-2.2-9.7c0-4.4,0.7-7.4,2.2-9.1c1.5-1.7,4-2.6,7.8-2.6c4.7,0,7.5,1.1,8.4,3.3l0.1,0v-12.9H510.3z M499,154.6
			c-2.8,0-4.6,0.6-5.5,1.7c-0.9,1.2-1.4,3.5-1.4,7.1c0,3.9,0.5,6.5,1.4,7.7c0.9,1.2,2.8,1.8,5.6,1.8c3.1,0,5.1-0.6,6-1.8
			c0.9-1.2,1.4-3.9,1.4-8c0-3.3-0.5-5.6-1.5-6.8S502,154.6,499,154.6z"/>
		<path class="st4" d="M534.9,168.4h3.8l0,0.9c0,2.4-0.8,4.1-2.4,5.1c-1.6,1-4.5,1.5-8.5,1.5c-4.7,0-7.8-0.8-9.3-2.4
			c-1.5-1.6-2.2-4.9-2.2-9.9c0-4.7,0.7-7.8,2.2-9.4c1.5-1.6,4.4-2.4,8.7-2.4c4.7,0,7.8,0.7,9.3,2.1c1.5,1.4,2.2,4.3,2.2,8.7v1.8
			h-18.5c0,3.7,0.4,6,1.3,7c0.9,1,2.9,1.5,6.1,1.5c3,0,5-0.2,5.9-0.7c0.9-0.5,1.4-1.5,1.4-3.1V168.4z M534.9,161.8l0-1.1
			c0-2.5-0.5-4.2-1.4-4.9c-0.9-0.8-2.9-1.1-5.9-1.1c-3,0-5,0.4-5.9,1.3c-0.9,0.9-1.4,2.8-1.4,5.8H534.9z"/>
		<path class="st4" d="M584,151.2h-4.1c0-2.7-0.5-4.4-1.5-5.1s-3.3-1.1-7-1.1c-4.3,0-7.1,0.3-8.4,1c-1.3,0.7-1.9,2.2-1.9,4.6
			c0,2.7,0.5,4.3,1.5,4.9s3.9,1,8.8,1.2c5.7,0.2,9.3,0.9,10.9,2c1.5,1.1,2.3,3.5,2.3,7.3c0,4.1-0.9,6.8-2.7,8
			c-1.8,1.2-5.7,1.8-11.8,1.8c-5.3,0-8.8-0.6-10.5-1.8c-1.7-1.2-2.6-3.7-2.6-7.3l0-1.5h4.1v0.8c0,3,0.5,4.8,1.5,5.6
			c1,0.7,3.6,1.1,7.7,1.1c4.7,0,7.7-0.4,8.8-1.1c1.1-0.7,1.6-2.7,1.6-5.8c0-2-0.4-3.4-1.1-4.1c-0.7-0.7-2.3-1.1-4.7-1.2l-4.3-0.2
			l-4.1-0.2c-6.2-0.4-9.3-3.3-9.3-8.8c0-3.8,0.9-6.3,2.7-7.6c1.8-1.3,5.4-1.9,10.8-1.9c5.5,0,9,0.6,10.7,1.8
			C583.1,144.8,584,147.3,584,151.2z"/>
		<path class="st4" d="M607.4,168.4h3.8l0,0.9c0,2.4-0.8,4.1-2.4,5.1c-1.6,1-4.5,1.5-8.5,1.5c-4.7,0-7.8-0.8-9.3-2.4
			c-1.5-1.6-2.2-4.9-2.2-9.9c0-4.7,0.7-7.8,2.2-9.4c1.5-1.6,4.4-2.4,8.7-2.4c4.7,0,7.8,0.7,9.3,2.1c1.5,1.4,2.2,4.3,2.2,8.7v1.8
			h-18.5c0,3.7,0.4,6,1.3,7c0.9,1,2.9,1.5,6.1,1.5c3,0,5-0.2,5.9-0.7c0.9-0.5,1.4-1.5,1.4-3.1V168.4z M607.4,161.8l0-1.1
			c0-2.5-0.5-4.2-1.4-4.9c-0.9-0.8-2.9-1.1-5.9-1.1c-3,0-5,0.4-5.9,1.3c-0.9,0.9-1.4,2.8-1.4,5.8H607.4z"/>
		<path class="st4" d="M638.7,152.1V177c0,3.4-0.8,5.7-2.4,7s-4.6,1.9-8.9,1.9c-3.8,0-6.4-0.5-7.8-1.6s-2.1-3.1-2.1-6h3.6
			c0,2,0.4,3.3,1.2,3.9c0.8,0.6,2.6,0.9,5.4,0.9c2.9,0,4.8-0.4,5.8-1.2s1.5-2.3,1.5-4.6v-4.7l-0.1,0c-1,2.2-3.8,3.2-8.4,3.2
			c-3.8,0-6.4-0.9-7.8-2.6c-1.4-1.7-2.1-4.8-2.1-9.3c0-4.7,0.7-7.9,2.2-9.6s4.2-2.6,8.1-2.6c4.2,0,7,1.2,8.2,3.5l0.1,0l-0.2-3.1
			H638.7z M627.5,154.6c-3,0-4.9,0.6-5.7,1.7s-1.3,3.6-1.3,7.4c0,3.9,0.4,6.4,1.3,7.5c0.9,1.1,2.8,1.7,5.7,1.7c3,0,5-0.6,5.9-1.9
			c0.9-1.3,1.4-3.9,1.4-7.9c0-3.5-0.5-5.8-1.4-6.9C632.5,155.2,630.5,154.6,627.5,154.6z"/>
		<path class="st4" d="M666.4,152.1v23.3h-3.8l0.3-3.1l-0.1-0.1c-1.3,2.3-4.1,3.5-8.4,3.5c-6,0-9-2.7-9-8.2v-15.5h3.8v15.5
			c0,2.1,0.4,3.5,1.2,4.2c0.8,0.7,2.3,1.1,4.5,1.1c3,0,5-0.5,6.1-1.6c1.1-1.1,1.7-3,1.7-5.9v-13.4H666.4z"/>
		<path class="st4" d="M673.8,152.1h3.8l-0.4,2.7l0.1,0.1c1.5-2.2,3.9-3.3,7.4-3.3c4.7,0,7.1,2.2,7.1,6.6l0,1.6H688l0.1-0.6
			c0.1-0.6,0.1-1,0.1-1.2c0-2.4-1.4-3.6-4.3-3.6c-4.2,0-6.3,2.4-6.3,7.1v14h-3.8V152.1z"/>
		<path class="st4" d="M706.1,151.8c4.7,0,7.8,0.7,9.2,2.2c1.4,1.5,2.1,4.8,2.1,9.8c0,5-0.7,8.3-2.1,9.8c-1.4,1.5-4.5,2.2-9.2,2.2
			c-4.7,0-7.8-0.7-9.2-2.2c-1.4-1.5-2.1-4.8-2.1-9.8c0-5,0.7-8.3,2.1-9.8C698.3,152.5,701.3,151.8,706.1,151.8z M706.1,154.6
			c-3.3,0-5.4,0.5-6.2,1.5c-0.8,1-1.2,3.6-1.2,7.7s0.4,6.7,1.2,7.7c0.8,1,2.9,1.5,6.2,1.5c3.3,0,5.4-0.5,6.2-1.5
			c0.8-1,1.2-3.6,1.2-7.7s-0.4-6.7-1.2-7.7C711.5,155.1,709.4,154.6,706.1,154.6z"/>
		<path class="st4" d="M743.3,158.2h-3.8c0-1.6-0.4-2.6-1.1-3c-0.7-0.4-2.6-0.6-5.6-0.6c-2.8,0-4.6,0.2-5.3,0.6
			c-0.8,0.4-1.1,1.4-1.1,3c0,2.4,1.3,3.6,3.8,3.8l3,0.1l3.8,0.2c4.7,0.2,7,2.4,7,6.6c0,2.6-0.8,4.4-2.3,5.4s-4.4,1.5-8.5,1.5
			c-4.2,0-7.1-0.5-8.7-1.4c-1.6-0.9-2.4-2.6-2.4-5.1l0-1.3h3.9l0,1.1c0,1.5,0.4,2.6,1.3,3.1c0.9,0.5,2.6,0.8,5.1,0.8
			c3.1,0,5.1-0.3,6.1-0.8c1-0.5,1.5-1.7,1.5-3.4c0-2.5-1.2-3.7-3.7-3.7c-5.7,0-9.5-0.4-11.3-1.3c-1.8-0.9-2.7-2.7-2.7-5.5
			c0-2.6,0.7-4.4,2.1-5.2c1.4-0.9,4.3-1.3,8.5-1.3c6.8,0,10.2,1.9,10.2,5.6V158.2z"/>
	</g>
	<g>
		<path class="st1" d="M315.6,142.1v33.3h-4.1v-33.3H315.6z"/>
		<path class="st1" d="M322.6,152.1h3.6l-0.1,3.2l0.1,0.1c1.1-2.4,4-3.6,8.5-3.6c3.7,0,6.2,0.6,7.5,1.8c1.3,1.2,1.9,3.4,1.9,6.7
			v15.2h-3.8v-14.9v-0.9c0-2-0.4-3.3-1.3-4c-0.8-0.7-2.5-1-4.9-1c-5.3,0-7.9,2.3-7.9,6.8v14h-3.8V152.1z"/>
		<path class="st1" d="M370.9,158.2h-3.8c0-1.6-0.4-2.6-1.1-3c-0.7-0.4-2.6-0.6-5.6-0.6c-2.8,0-4.6,0.2-5.3,0.6s-1.1,1.4-1.1,3
			c0,2.4,1.3,3.6,3.8,3.8l3,0.1l3.8,0.2c4.7,0.2,7,2.4,7,6.6c0,2.6-0.8,4.4-2.3,5.4c-1.5,1-4.4,1.5-8.5,1.5c-4.2,0-7.1-0.5-8.7-1.4
			c-1.6-0.9-2.4-2.6-2.4-5.1l0-1.3h3.9l0,1.1c0,1.5,0.4,2.6,1.3,3.1c0.9,0.5,2.6,0.8,5.1,0.8c3.1,0,5.1-0.3,6.1-0.8
			c1-0.5,1.5-1.7,1.5-3.4c0-2.5-1.2-3.7-3.7-3.7c-5.7,0-9.5-0.4-11.3-1.3c-1.8-0.9-2.7-2.7-2.7-5.5c0-2.6,0.7-4.4,2.1-5.2
			c1.4-0.9,4.3-1.3,8.5-1.3c6.8,0,10.2,1.9,10.2,5.6V158.2z"/>
		<path class="st1" d="M398.1,152.1v23.3h-3.8l0.3-3.1l-0.1-0.1c-1.3,2.3-4.1,3.5-8.4,3.5c-6,0-9-2.7-9-8.2v-15.5h3.8v15.5
			c0,2.1,0.4,3.5,1.2,4.2c0.8,0.7,2.3,1.1,4.5,1.1c3,0,5-0.5,6.1-1.6c1.1-1.1,1.7-3,1.7-5.9v-13.4H398.1z"/>
		<path class="st1" d="M405.6,152.1h3.8l-0.4,2.7l0.1,0.1c1.5-2.2,3.9-3.3,7.4-3.3c4.7,0,7.1,2.2,7.1,6.6l0,1.6h-3.7l0.1-0.6
			c0.1-0.6,0.1-1,0.1-1.2c0-2.4-1.4-3.6-4.3-3.6c-4.2,0-6.3,2.4-6.3,7.1v14h-3.8V152.1z"/>
		<path class="st1" d="M431.2,158.7h-3.7c0-2.7,0.7-4.5,2-5.5c1.4-0.9,4-1.4,7.9-1.4c4.3,0,7.2,0.6,8.7,1.7s2.3,3.3,2.3,6.6v15.4
			h-3.8l0.3-2.5l-0.1,0c-1.4,1.9-4.3,2.9-8.7,2.9c-6.5,0-9.7-2.4-9.7-7.1c0-2.8,0.7-4.8,2.2-5.8s4.1-1.6,7.9-1.6
			c4.5,0,7.2,0.8,8.1,2.4l0.1,0v-2.8c0-2.7-0.4-4.4-1.2-5.2c-0.8-0.8-2.6-1.2-5.3-1.2c-4.6,0-6.9,1.2-6.9,3.5
			C431.1,158.1,431.1,158.3,431.2,158.7z M437.2,163.9c-2.9,0-4.8,0.3-5.6,0.8c-0.9,0.6-1.3,1.7-1.3,3.6c0,1.9,0.4,3.1,1.3,3.7
			c0.9,0.6,2.6,0.9,5.2,0.9c5.3,0,7.9-1.5,7.9-4.4c0-1.8-0.5-3.1-1.5-3.7S440.2,163.9,437.2,163.9z"/>
		<path class="st1" d="M455.4,152.1h3.6l-0.1,3.2l0.1,0.1c1.1-2.4,4-3.6,8.5-3.6c3.7,0,6.2,0.6,7.5,1.8s1.9,3.4,1.9,6.7v15.2h-3.8
			v-14.9v-0.9c0-2-0.4-3.3-1.3-4c-0.8-0.7-2.5-1-4.9-1c-5.3,0-7.9,2.3-7.9,6.8v14h-3.8V152.1z"/>
		<path class="st1" d="M501.5,167h3.8l0,1.3c0,5-3.6,7.5-10.8,7.5c-4.6,0-7.7-0.8-9.2-2.4c-1.5-1.6-2.2-4.8-2.2-9.8
			c0-4.6,0.8-7.8,2.3-9.4c1.5-1.7,4.4-2.5,8.6-2.5c4.2,0,7,0.6,8.5,1.7c1.5,1.1,2.3,3.2,2.3,6.3h-3.8v-0.6c0-1.8-0.5-3-1.5-3.6
			c-1-0.6-2.9-0.9-5.9-0.9c-2.8,0-4.6,0.6-5.5,1.7c-0.8,1.1-1.2,3.7-1.2,7.7c0,3.9,0.5,6.3,1.4,7.4c0.9,1.1,3.1,1.6,6.5,1.6
			c2.9,0,4.7-0.3,5.5-1C501.1,171.2,501.5,169.6,501.5,167z"/>
		<path class="st1" d="M528.5,168.4h3.8l0,0.9c0,2.4-0.8,4.1-2.4,5.1c-1.6,1-4.5,1.5-8.5,1.5c-4.7,0-7.8-0.8-9.3-2.4
			c-1.5-1.6-2.2-4.9-2.2-9.9c0-4.7,0.7-7.8,2.2-9.4s4.4-2.4,8.7-2.4c4.7,0,7.8,0.7,9.3,2.1c1.5,1.4,2.2,4.3,2.2,8.7v1.8h-18.5
			c0,3.7,0.4,6,1.3,7c0.9,1,2.9,1.5,6.1,1.5c3,0,5-0.2,5.9-0.7c0.9-0.5,1.4-1.5,1.4-3.1V168.4z M528.5,161.8l0-1.1
			c0-2.5-0.5-4.2-1.4-4.9s-2.9-1.1-5.9-1.1c-3,0-5,0.4-5.9,1.3c-0.9,0.9-1.4,2.8-1.4,5.8H528.5z"/>
		<path class="st1" d="M577.6,151.2h-4.1c0-2.7-0.5-4.4-1.5-5.1c-1-0.7-3.3-1.1-7-1.1c-4.3,0-7.1,0.3-8.4,1
			c-1.3,0.7-1.9,2.2-1.9,4.6c0,2.7,0.5,4.3,1.5,4.9s3.9,1,8.8,1.2c5.7,0.2,9.3,0.9,10.9,2c1.5,1.1,2.3,3.5,2.3,7.3
			c0,4.1-0.9,6.8-2.7,8c-1.8,1.2-5.7,1.8-11.8,1.8c-5.3,0-8.8-0.6-10.5-1.8c-1.7-1.2-2.6-3.7-2.6-7.3l0-1.5h4.1v0.8
			c0,3,0.5,4.8,1.5,5.6c1,0.7,3.6,1.1,7.7,1.1c4.7,0,7.7-0.4,8.8-1.1c1.1-0.7,1.6-2.7,1.6-5.8c0-2-0.4-3.4-1.1-4.1
			c-0.7-0.7-2.3-1.1-4.7-1.2l-4.3-0.2l-4.1-0.2c-6.2-0.4-9.3-3.3-9.3-8.8c0-3.8,0.9-6.3,2.7-7.6c1.8-1.3,5.4-1.9,10.8-1.9
			c5.5,0,9,0.6,10.7,1.8C576.7,144.8,577.6,147.3,577.6,151.2z"/>
		<path class="st1" d="M601,168.4h3.8l0,0.9c0,2.4-0.8,4.1-2.4,5.1c-1.6,1-4.5,1.5-8.5,1.5c-4.7,0-7.8-0.8-9.3-2.4
			c-1.5-1.6-2.2-4.9-2.2-9.9c0-4.7,0.7-7.8,2.2-9.4s4.4-2.4,8.7-2.4c4.7,0,7.8,0.7,9.3,2.1c1.5,1.4,2.2,4.3,2.2,8.7v1.8h-18.5
			c0,3.7,0.4,6,1.3,7c0.9,1,2.9,1.5,6.1,1.5c3,0,5-0.2,5.9-0.7c0.9-0.5,1.4-1.5,1.4-3.1V168.4z M601,161.8l0-1.1
			c0-2.5-0.5-4.2-1.4-4.9s-2.9-1.1-5.9-1.1c-3,0-5,0.4-5.9,1.3c-0.9,0.9-1.4,2.8-1.4,5.8H601z"/>
		<path class="st1" d="M611.2,152.1h3.8l-0.4,2.7l0.1,0.1c1.5-2.2,3.9-3.3,7.4-3.3c4.7,0,7.1,2.2,7.1,6.6l0,1.6h-3.7l0.1-0.6
			c0.1-0.6,0.1-1,0.1-1.2c0-2.4-1.4-3.6-4.3-3.6c-4.2,0-6.3,2.4-6.3,7.1v14h-3.8V152.1z"/>
		<path class="st1" d="M651.9,152.1l-8.6,23.3h-5.4l-8.5-23.3h3.9l4.5,12.7l1.4,4l0.7,2l0.7,2h0.1l0.6-2l0.6-2l1.4-4l4.3-12.7H651.9
			z"/>
		<path class="st1" d="M658.9,142.1v3.8h-3.8v-3.8H658.9z M658.9,152.1v23.3h-3.8v-23.3H658.9z"/>
		<path class="st1" d="M683.2,167h3.8l0,1.3c0,5-3.6,7.5-10.8,7.5c-4.6,0-7.7-0.8-9.2-2.4c-1.5-1.6-2.2-4.8-2.2-9.8
			c0-4.6,0.8-7.8,2.3-9.4c1.5-1.7,4.4-2.5,8.6-2.5c4.2,0,7,0.6,8.5,1.7c1.5,1.1,2.3,3.2,2.3,6.3h-3.8v-0.6c0-1.8-0.5-3-1.5-3.6
			c-1-0.6-2.9-0.9-5.9-0.9c-2.8,0-4.6,0.6-5.5,1.7c-0.8,1.1-1.2,3.7-1.2,7.7c0,3.9,0.5,6.3,1.4,7.4c0.9,1.1,3.1,1.6,6.5,1.6
			c2.9,0,4.7-0.3,5.5-1C682.8,171.2,683.2,169.6,683.2,167z"/>
		<path class="st1" d="M710.2,168.4h3.8l0,0.9c0,2.4-0.8,4.1-2.4,5.1c-1.6,1-4.5,1.5-8.5,1.5c-4.7,0-7.8-0.8-9.3-2.4
			c-1.5-1.6-2.2-4.9-2.2-9.9c0-4.7,0.7-7.8,2.2-9.4s4.4-2.4,8.7-2.4c4.7,0,7.8,0.7,9.3,2.1c1.5,1.4,2.2,4.3,2.2,8.7v1.8h-18.5
			c0,3.7,0.4,6,1.3,7c0.9,1,2.9,1.5,6.1,1.5c3,0,5-0.2,5.9-0.7c0.9-0.5,1.4-1.5,1.4-3.1V168.4z M710.2,161.8l0-1.1
			c0-2.5-0.5-4.2-1.4-4.9s-2.9-1.1-5.9-1.1c-3,0-5,0.4-5.9,1.3c-0.9,0.9-1.4,2.8-1.4,5.8H710.2z"/>
		<path class="st1" d="M740,158.2h-3.8c0-1.6-0.4-2.6-1.1-3c-0.7-0.4-2.6-0.6-5.6-0.6c-2.8,0-4.6,0.2-5.3,0.6s-1.1,1.4-1.1,3
			c0,2.4,1.3,3.6,3.8,3.8l3,0.1l3.8,0.2c4.7,0.2,7,2.4,7,6.6c0,2.6-0.8,4.4-2.3,5.4s-4.4,1.5-8.5,1.5c-4.2,0-7.1-0.5-8.7-1.4
			c-1.6-0.9-2.4-2.6-2.4-5.1l0-1.3h3.9l0,1.1c0,1.5,0.4,2.6,1.3,3.1c0.9,0.5,2.6,0.8,5.1,0.8c3.1,0,5.1-0.3,6.1-0.8
			c1-0.5,1.5-1.7,1.5-3.4c0-2.5-1.2-3.7-3.7-3.7c-5.7,0-9.5-0.4-11.3-1.3c-1.8-0.9-2.7-2.7-2.7-5.5c0-2.6,0.7-4.4,2.1-5.2
			c1.4-0.9,4.3-1.3,8.5-1.3c6.8,0,10.2,1.9,10.2,5.6V158.2z"/>
	</g>
</g>
<g>
	<g>
		<path class="st5" d="M753.1,70.9c0.8-0.1,1.9-0.2,3.1-0.2c1.6,0,2.7,0.3,3.4,0.9c0.6,0.5,1,1.3,1,2.2c0,1.4-1,2.4-2,2.8v0
			c0.8,0.3,1.3,1.1,1.6,2.2c0.3,1.4,0.6,2.7,0.9,3.1h-2.1c-0.2-0.3-0.4-1.2-0.7-2.6c-0.3-1.5-0.8-1.9-2-2h-1v4.6h-2V70.9z
			 M755.1,75.8h1.2c1.4,0,2.2-0.7,2.2-1.8c0-1.2-0.9-1.8-2.2-1.8c-0.6,0-1.1,0.1-1.3,0.1V75.8z"/>
	</g>
	<path class="st5" d="M756.6,66.7c-5.2,0-9.5,4.3-9.5,9.5c0,5.2,4.3,9.5,9.5,9.5c5.2,0,9.5-4.3,9.5-9.5
		C766.1,71,761.8,66.7,756.6,66.7z M756.6,84.4c-4.5,0-8.1-3.6-8.1-8.1c0-4.5,3.6-8.1,8.1-8.1c4.5,0,8.1,3.6,8.1,8.1
		C764.7,80.7,761.1,84.4,756.6,84.4z"/>
</g>
</svg>
