<?xml version="1.0" encoding="utf-8"?>
<!-- Generator: Adobe Illustrator 23.0.6, SVG Export Plug-In . SVG Version: 6.00 Build 0)  -->
<svg version="1.1" id="Layer_1" xmlns="http://www.w3.org/2000/svg" xmlns:xlink="http://www.w3.org/1999/xlink" x="0px" y="0px"
	 viewBox="0 0 825 247" style="enable-background:new 0 0 825 247;" xml:space="preserve">
<style type="text/css">
	.st0{stroke:#FF871D;stroke-width:8;stroke-miterlimit:10;}
	.st1{fill:#FF871D;}
	.st2{fill-rule:evenodd;clip-rule:evenodd;fill:#FFFFFF;}
	.st3{font-family:'EurostileRegular';}
	.st4{font-size:50px;}
	.st5{fill:#FFFFFF;}
</style>
<path class="st0" d="M803.8,239.5H22.2c-7.8,0-14.2-6.3-14.2-14.2V22.7c0-7.8,6.3-14.2,14.2-14.2h781.7c7.8,0,14.2,6.3,14.2,14.2
	v202.7C818,233.2,811.7,239.5,803.8,239.5z"/>
<g>
	<g>
		<path class="st1" d="M166.5,117.1c34.7-19.6,66.5-24.5,75.4-10.1c10.4,16.8-14.5,53.7-55.8,82.5c-13.6,9.4-27.2,16.8-39.8,21.9
			c18.1-14.5,35.3-31.9,47.8-49.3c26.6-37,21.7-60-11-51.2C177.9,112.3,172.3,114.4,166.5,117.1z"/>
		<path class="st1" d="M151.7,120.7c-34.3-20.3-54.4-45.4-46.5-60.3c9.3-17.5,53.8-14.3,99.3,7.1c15,7,28.2,15.1,38.8,23.5
			c-21.6-8.4-45.3-14.6-66.6-16.8c-45.4-4.5-62.8,11.2-38.8,35.1C141.8,113.2,146.4,117,151.7,120.7z"/>
		<path class="st1" d="M162.1,130.4c-0.4,39.9-12.1,69.8-29,70.4c-19.8,0.6-39.3-39.5-43.5-89.6c-1.4-16.5-1-32,0.9-45.4
			c3.5,22.9,10,46.5,18.8,66c18.8,41.5,41.1,48.7,49.8,16C160.6,142.7,161.6,136.8,162.1,130.4z"/>
	</g>
	<path class="st2" d="M726.3,82.1v20.7h2l10.6-10h5.5l-12.8,11.5l15.1,13.5h-5.9l-12.7-12.1h-1.8v12.1h-4.4V82.1H726.3z M696.8,92.8
		h4.4l-0.4,2.9c1.8-2.3,4.7-3.5,8.7-3.5c5.5,0,8.3,2.4,8.3,7.1l0,1.7h-4.3l0.1-0.6c0.1-0.7,0.1-1.1,0.1-1.3c0-2.6-1.7-3.8-5-3.8
		c-4.9,0-7.3,2.5-7.3,7.6v15h-4.4V92.8z M676.2,95.4c-3.9,0-6.3,0.5-7.2,1.6c-0.9,1-1.4,3.8-1.4,8.2c0,4.4,0.5,7.2,1.4,8.3
		c0.9,1,3.4,1.6,7.2,1.6c3.9,0,6.3-0.5,7.2-1.6c0.9-1.1,1.4-3.8,1.4-8.3c0-4.4-0.5-7.2-1.4-8.2C682.5,96,680.1,95.4,676.2,95.4z
		 M676.2,92.4c5.5,0,9.1,0.8,10.8,2.4c1.7,1.6,2.5,5.1,2.5,10.5c0,5.4-0.8,8.9-2.5,10.5c-1.7,1.6-5.2,2.4-10.8,2.4
		c-5.5,0-9.1-0.8-10.8-2.4c-1.7-1.6-2.5-5.1-2.5-10.5c0-5.4,0.8-8.9,2.5-10.5C667.1,93.2,670.7,92.4,676.2,92.4z M659.8,92.8
		l-8.4,25h-6.5l-4-13.9l-1.2-4.2l-0.6-2.1l-0.6-2.1l-0.7,2.1l-0.6,2.1l-1.2,4.2l-4,13.9h-6.6l-8.1-25h4.6l4.2,13.8l1.3,4.3l0.6,2.2
		l0.6,2.2l0.7-2.2l0.6-2.2l1.3-4.3l4.1-13.9h6.4l4.1,13.9l1.3,4.3l0.6,2.1l0.6,2.2l0.8-2.2l0.6-2.2l1.3-4.3l4.2-13.8H659.8z
		 M615.7,92.8v3h-11.5v15.3c0,2.7,1.4,4,4.3,4c2.8,0,4.2-1.2,4.2-3.6l0-1.2l0.1-1.4h4.1l0,1.9c0,4.9-2.8,7.4-8.4,7.4
		c-5.8,0-8.7-2-8.7-6.1v-0.9V95.8h-4.1v-3h4.1v-6h4.4v6H615.7z M588.4,103.1l0-1.2c0-2.7-0.5-4.5-1.6-5.3c-1.1-0.8-3.4-1.2-6.9-1.2
		c-3.6,0-5.9,0.5-6.9,1.4c-1,0.9-1.6,3-1.6,6.2H588.4z M588.4,110.2h4.5l0,0.9c0,2.6-1,4.4-2.9,5.5c-1.9,1-5.2,1.5-9.9,1.5
		c-5.5,0-9.1-0.8-10.9-2.5c-1.7-1.7-2.6-5.2-2.6-10.6c0-5,0.9-8.3,2.6-10c1.7-1.7,5.1-2.6,10.2-2.6c5.5,0,9.1,0.7,10.9,2.2
		c1.7,1.5,2.6,4.6,2.6,9.4v2h-21.6c0,3.9,0.5,6.4,1.5,7.5c1,1.1,3.4,1.6,7.1,1.6c3.5,0,5.8-0.3,6.9-0.8c1.1-0.5,1.6-1.6,1.6-3.3
		V110.2z M559.6,82.1v35.7h-7.9l-17.9-24.3l-2.9-4l-1.4-2l-1.4-2l-0.1,1.3l0,1.4v2.7v26.9h-4.8V82.1h7.9l15.7,21.3l4.1,5.6l2,2.8
		l2,2.8l0.1-1.3l0-1.4v-2.7V82.1H559.6z M496.2,108.7h4.4l0,1.4c0,5.4-4.2,8-12.6,8c-5.4,0-9-0.8-10.7-2.5
		c-1.7-1.7-2.6-5.2-2.6-10.5c0-4.9,0.9-8.3,2.6-10.1c1.8-1.8,5.1-2.7,10.1-2.7c4.9,0,8.2,0.6,10,1.8c1.8,1.2,2.7,3.4,2.7,6.7h-4.4
		v-0.7c0-1.9-0.6-3.2-1.7-3.9c-1.2-0.6-3.4-1-6.9-1c-3.3,0-5.4,0.6-6.4,1.8c-0.9,1.2-1.4,4-1.4,8.2c0,4.1,0.5,6.8,1.6,7.9
		c1.1,1.1,3.6,1.7,7.6,1.7c3.3,0,5.5-0.4,6.4-1.1C495.8,113.2,496.2,111.5,496.2,108.7z M468,92.8v25h-4.4v-25H468z M468,82.1v4.1
		h-4.4v-4.1H468z M410.5,92.8h4.4l-0.1,3.8c1.8-2.7,5.1-4.1,9.9-4.1c5.1,0,8.2,1.4,9.3,4.2c2-2.8,5.4-4.2,10.4-4.2
		c7.1,0,10.6,3,10.6,9v16.3h-4.4v-16.7c0-2.2-0.5-3.7-1.4-4.5c-0.9-0.8-2.7-1.2-5.3-1.2c-3.5,0-5.8,0.5-7.1,1.6
		c-1.2,1.1-1.9,3.2-1.9,6.2v14.5h-4.4v-16.3l-0.1-1.2c0-3.2-2.2-4.8-6.6-4.8c-6,0-9,2.7-9,8.1v14.2h-4.4V92.8z M389.4,105.4
		c-3.4,0-5.6,0.3-6.6,0.9c-1,0.6-1.5,1.9-1.5,3.8c0,2,0.5,3.4,1.5,4c1,0.6,3,1,6.1,1c6.2,0,9.3-1.6,9.3-4.7c0-2-0.6-3.3-1.8-4
		C395.2,105.7,392.9,105.4,389.4,105.4z M382.4,99.8H378c0-2.9,0.8-4.9,2.4-5.9c1.6-1,4.7-1.5,9.3-1.5c5,0,8.4,0.6,10.1,1.9
		c1.8,1.2,2.6,3.6,2.6,7v16.5H398l0.3-2.7c-1.8,2-5.2,3.1-10.3,3.1c-7.6,0-11.4-2.5-11.4-7.6c0-3,0.8-5.1,2.5-6.2
		c1.7-1.1,4.8-1.7,9.2-1.7c5.3,0,8.4,0.9,9.5,2.6l0.1-3.1c0-2.9-0.5-4.7-1.4-5.5c-0.9-0.9-3-1.3-6.2-1.3c-5.4,0-8.1,1.3-8.1,3.8
		C382.3,99.2,382.3,99.4,382.4,99.8z M344.7,92.8h4.2l-0.1,3.4c1.5-2.5,4.8-3.8,10.1-3.8c4.3,0,7.2,0.6,8.7,1.9
		c1.5,1.3,2.3,3.7,2.3,7.2v16.3h-4.4v-15.9v-0.9c0-2.1-0.5-3.6-1.5-4.3c-1-0.7-2.9-1.1-5.7-1.1c-6.2,0-9.3,2.4-9.3,7.3v15h-4.4V92.8
		z M341,92.8l-8.5,26.4c-1.2,3.7-2.5,6.3-4,7.7c-1.4,1.4-3.5,2.1-6.2,2.1c-0.5,0-1.2-0.1-2.1-0.2v-3c0.6,0.1,1.1,0.2,1.5,0.2
		c2.4,0.1,4.1-1.5,5.3-4.8l0.8-2.5l0.3-0.9h-1.7l-10.9-25h4.7l4.6,11.1l2.3,5.5l1.1,2.8l1.2,2.8l0.9-2.8l0.8-2.8l1.7-5.5l3.4-11.1
		H341z M282.8,114.3h14c5.1,0,8.4-0.9,9.9-2.6c1.5-1.7,2.2-5.5,2.2-11.4c0-6.5-0.6-10.6-1.9-12.3c-1.3-1.7-4.4-2.6-9.2-2.6h-14.9
		V114.3z M277.9,117.7V82.1h19.8c6.1,0,10.3,1.1,12.5,3.4c2.2,2.2,3.3,6.6,3.3,12.9c0,7.7-1,12.9-2.9,15.5
		c-1.9,2.6-5.8,3.9-11.6,3.9H277.9z"/>
	<text transform="matrix(1.1 0 0 1 308.959 175.4668)" class="st1 st3 st4">Insurance Services</text>
</g>
<g>
	<g>
		<path class="st5" d="M753.1,70.9c0.8-0.1,1.9-0.2,3.1-0.2c1.6,0,2.7,0.3,3.4,0.9c0.6,0.5,1,1.3,1,2.2c0,1.4-1,2.4-2,2.8v0
			c0.8,0.3,1.3,1.1,1.6,2.2c0.3,1.4,0.6,2.7,0.9,3.1h-2.1c-0.2-0.3-0.4-1.2-0.7-2.6c-0.3-1.5-0.8-1.9-2-2h-1v4.6h-2V70.9z
			 M755.1,75.8h1.2c1.4,0,2.2-0.7,2.2-1.8c0-1.2-0.9-1.8-2.2-1.8c-0.6,0-1.1,0.1-1.3,0.1V75.8z"/>
	</g>
	<path class="st5" d="M756.6,66.7c-5.2,0-9.5,4.3-9.5,9.5c0,5.2,4.3,9.5,9.5,9.5c5.2,0,9.5-4.3,9.5-9.5
		C766.1,71,761.8,66.7,756.6,66.7z M756.6,84.4c-4.5,0-8.1-3.6-8.1-8.1c0-4.5,3.6-8.1,8.1-8.1c4.5,0,8.1,3.6,8.1,8.1
		C764.7,80.7,761.1,84.4,756.6,84.4z"/>
</g>
</svg>
