<?xml version="1.0" encoding="UTF-8"?>
<svg xmlns="http://www.w3.org/2000/svg" xmlns:xlink="http://www.w3.org/1999/xlink" width="75pt" height="75pt" viewBox="0 0 75 75" version="1.1">
<g id="surface1">
<path style=" stroke:none;fill-rule:nonzero;fill:rgb(48.235294%,47.45098%,47.45098%);fill-opacity:1;" d="M 37.738281 70.546875 C 28.90625 70.546875 20.609375 67.109375 14.355469 60.855469 C 8.113281 54.613281 4.664062 46.304688 4.664062 37.46875 C 4.664062 28.636719 8.113281 20.339844 14.355469 14.101562 C 20.59375 7.859375 28.90625 4.410156 37.738281 4.410156 C 46.574219 4.410156 54.871094 7.84375 61.125 14.101562 C 67.378906 20.355469 70.816406 28.648438 70.816406 37.484375 C 70.816406 46.320312 67.378906 54.613281 61.125 60.871094 C 54.886719 67.109375 46.574219 70.546875 37.738281 70.546875 Z M 37.738281 70.546875 "/>
<path style=" stroke:none;fill-rule:nonzero;fill:rgb(13.72549%,12.156863%,12.54902%);fill-opacity:1;" d="M 37.738281 5.578125 C 55.351562 5.578125 69.628906 19.859375 69.628906 37.46875 C 69.628906 55.078125 55.351562 69.375 37.738281 69.375 C 20.128906 69.375 5.851562 55.09375 5.851562 37.484375 C 5.851562 19.875 20.128906 5.578125 37.738281 5.578125 M 37.738281 3.238281 C 33.121094 3.238281 28.636719 4.140625 24.40625 5.925781 C 20.324219 7.648438 16.664062 10.125 13.53125 13.261719 C 10.378906 16.410156 7.921875 20.070312 6.195312 24.148438 C 4.410156 28.378906 3.511719 32.851562 3.511719 37.484375 C 3.511719 42.105469 4.410156 46.589844 6.195312 50.820312 C 7.921875 54.898438 10.394531 58.558594 13.53125 61.710938 C 16.679688 64.859375 20.339844 67.320312 24.40625 69.046875 C 28.636719 70.828125 33.105469 71.730469 37.738281 71.730469 C 42.359375 71.730469 46.84375 70.828125 51.074219 69.046875 C 55.15625 67.320312 58.816406 64.84375 61.964844 61.710938 C 65.113281 58.558594 67.574219 54.898438 69.300781 50.820312 C 71.085938 46.589844 71.984375 42.121094 71.984375 37.484375 C 71.984375 32.863281 71.085938 28.378906 69.300781 24.148438 C 67.574219 20.070312 65.101562 16.410156 61.964844 13.261719 C 58.816406 10.109375 55.15625 7.648438 51.074219 5.925781 C 46.84375 4.140625 42.359375 3.238281 37.738281 3.238281 Z M 37.738281 3.238281 "/>
<path style=" stroke:none;fill-rule:nonzero;fill:rgb(13.72549%,12.156863%,12.54902%);fill-opacity:1;" d="M 18.148438 51.644531 L 48.179688 67.441406 C 48.179688 67.441406 75.703125 61.335938 68.835938 30.359375 L 51.71875 22.546875 C 51.71875 22.546875 53.25 43.558594 36.601562 47.25 C 35.191406 47.566406 22.050781 39.121094 22.050781 39.121094 C 22.050781 39.121094 9.554688 41.160156 18.148438 51.644531 Z M 18.148438 51.644531 "/>
<path style=" stroke:none;fill-rule:nonzero;fill:rgb(100%,100%,100%);fill-opacity:1;" d="M 21.390625 38.59375 C 17.566406 38.59375 14.460938 41.699219 14.460938 45.539062 C 14.460938 49.363281 17.566406 52.46875 21.390625 52.46875 C 25.214844 52.46875 28.320312 49.363281 28.320312 45.539062 C 28.335938 41.699219 25.230469 38.59375 21.390625 38.59375 Z M 21.390625 49.546875 C 19.171875 49.546875 17.371094 47.746094 17.371094 45.523438 C 17.371094 43.304688 19.171875 41.503906 21.390625 41.503906 C 23.609375 41.503906 25.410156 43.304688 25.410156 45.523438 C 25.410156 47.746094 23.609375 49.546875 21.390625 49.546875 Z M 21.390625 49.546875 "/>
<path style=" stroke:none;fill-rule:nonzero;fill:rgb(100%,100%,100%);fill-opacity:1;" d="M 45.765625 45.945312 C 45.765625 40.964844 49.816406 36.914062 54.796875 36.914062 C 54.855469 36.914062 54.898438 36.914062 54.960938 36.914062 C 56.070312 35.296875 57.78125 35.566406 57.359375 32.175781 C 56.640625 26.398438 51.71875 22.546875 51.71875 22.546875 C 51.71875 22.546875 48.421875 24.074219 49.710938 26.144531 C 50.519531 27.464844 48.988281 27.914062 48.105469 28.648438 C 47.59375 29.070312 48.976562 30.628906 46.875 29.789062 C 42.359375 27.988281 36.976562 28.320312 35.835938 33.179688 C 26.625 33.253906 26.28125 28.066406 26.28125 28.066406 L 15.988281 27.570312 C 15.988281 27.570312 10.066406 29.429688 14.609375 31.289062 C 22.261719 35.054688 26.070312 37.050781 29.113281 38.820312 C 31.753906 40.351562 31.214844 43.933594 31.261719 46.921875 C 31.261719 47.113281 32.863281 47.476562 32.96875 47.65625 C 34.484375 50.371094 40.664062 49.410156 46.003906 47.941406 C 45.855469 47.296875 45.765625 46.636719 45.765625 45.945312 Z M 45.765625 45.945312 "/>
<path style=" stroke:none;fill-rule:nonzero;fill:rgb(100%,100%,100%);fill-opacity:1;" d="M 54.796875 39.015625 C 50.96875 39.015625 47.863281 42.121094 47.863281 45.945312 C 47.863281 49.769531 50.96875 52.875 54.796875 52.875 C 58.621094 52.875 61.726562 49.769531 61.726562 45.945312 C 61.726562 42.121094 58.621094 39.015625 54.796875 39.015625 Z M 54.796875 49.964844 C 52.574219 49.964844 50.773438 48.164062 50.773438 45.945312 C 50.773438 43.726562 52.574219 41.925781 54.796875 41.925781 C 57.015625 41.925781 58.816406 43.726562 58.816406 45.945312 C 58.816406 48.164062 57.015625 49.964844 54.796875 49.964844 Z M 54.796875 49.964844 "/>
</g>
</svg>
