<?xml version="1.0" encoding="UTF-8"?>
<svg xmlns="http://www.w3.org/2000/svg" xmlns:xlink="http://www.w3.org/1999/xlink" width="75pt" height="75pt" viewBox="0 0 75 75" version="1.1">
<g id="surface1">
<path style=" stroke:none;fill-rule:nonzero;fill:rgb(48.235294%,47.45098%,47.45098%);fill-opacity:1;" d="M 37.816406 71.160156 C 28.921875 71.160156 20.566406 67.695312 14.28125 61.410156 C 7.996094 55.125 4.53125 46.753906 4.53125 37.875 C 4.53125 28.996094 7.996094 20.625 14.28125 14.339844 C 20.566406 8.054688 28.933594 4.589844 37.816406 4.589844 C 46.710938 4.589844 55.066406 8.054688 61.351562 14.339844 C 67.636719 20.625 71.101562 28.996094 71.101562 37.875 C 71.101562 46.769531 67.636719 55.125 61.351562 61.410156 C 55.066406 67.695312 46.710938 71.160156 37.816406 71.160156 Z M 37.816406 71.160156 "/>
<path style=" stroke:none;fill-rule:nonzero;fill:rgb(13.72549%,12.156863%,12.54902%);fill-opacity:1;" d="M 37.816406 5.761719 C 55.546875 5.761719 69.929688 20.128906 69.929688 37.875 C 69.929688 55.621094 55.558594 69.988281 37.816406 69.988281 C 20.085938 69.976562 5.699219 55.605469 5.699219 37.875 C 5.699219 20.144531 20.085938 5.761719 37.816406 5.761719 M 37.816406 3.390625 C 33.164062 3.390625 28.648438 4.304688 24.390625 6.105469 C 20.28125 7.84375 16.605469 10.320312 13.441406 13.484375 C 10.273438 16.648438 7.785156 20.339844 6.058594 24.433594 C 4.261719 28.679688 3.34375 33.195312 3.34375 37.859375 C 3.34375 42.523438 4.261719 47.023438 6.058594 51.285156 C 7.800781 55.394531 10.273438 59.070312 13.441406 62.234375 C 16.605469 65.398438 20.296875 67.890625 24.390625 69.613281 C 28.636719 71.414062 33.148438 72.328125 37.816406 72.328125 C 42.464844 72.328125 46.980469 71.414062 51.238281 69.613281 C 55.351562 67.875 59.023438 65.398438 62.191406 62.234375 C 65.355469 59.070312 67.84375 55.378906 69.570312 51.285156 C 71.371094 47.039062 72.285156 42.523438 72.285156 37.859375 C 72.285156 33.195312 71.371094 28.695312 69.570312 24.433594 C 67.828125 20.324219 65.355469 16.648438 62.191406 13.484375 C 59.023438 10.320312 55.335938 7.828125 51.238281 6.105469 C 46.980469 4.304688 42.464844 3.390625 37.816406 3.390625 Z M 37.816406 3.390625 "/>
<path style=" stroke:none;fill-rule:evenodd;fill:rgb(13.72549%,12.156863%,12.54902%);fill-opacity:1;" d="M 15.226562 29.175781 L 19.84375 32.128906 L 19.84375 54.78125 L 29.039062 70.410156 C 29.039062 70.410156 45.34375 74.308594 56.203125 65.445312 C 67.078125 56.578125 72.628906 46.183594 70.738281 32.609375 L 60.539062 28.589844 L 37.664062 19.140625 Z M 15.226562 29.175781 "/>
<path style=" stroke:none;fill-rule:evenodd;fill:rgb(100%,100%,100%);fill-opacity:1;" d="M 14.191406 28.574219 L 37.363281 17.371094 L 60.539062 28.574219 L 57.71875 30.34375 L 37.378906 20.503906 L 17.039062 30.34375 Z M 19.84375 32.128906 L 37.363281 23.65625 L 54.886719 32.128906 L 54.886719 54.78125 L 19.84375 54.78125 Z M 30.628906 35.398438 L 35.953125 35.398438 L 35.953125 46.664062 L 30.628906 46.664062 Z M 44.101562 35.398438 L 38.773438 35.398438 L 38.773438 46.664062 L 44.101562 46.664062 Z M 44.101562 35.398438 "/>
</g>
</svg>
