<?xml version="1.0" encoding="UTF-8"?>
<svg xmlns="http://www.w3.org/2000/svg" xmlns:xlink="http://www.w3.org/1999/xlink" width="75pt" height="75pt" viewBox="0 0 75 75" version="1.1">
<g id="surface1">
<path style=" stroke:none;fill-rule:nonzero;fill:rgb(48.235294%,47.45098%,47.45098%);fill-opacity:1;" d="M 37.574219 71.324219 C 28.558594 71.324219 20.085938 67.816406 13.710938 61.441406 C 7.335938 55.066406 3.824219 46.589844 3.824219 37.574219 C 3.824219 28.558594 7.335938 20.085938 13.710938 13.710938 C 20.085938 7.335938 28.558594 3.824219 37.574219 3.824219 C 46.589844 3.824219 55.066406 7.335938 61.441406 13.710938 C 67.816406 20.085938 71.324219 28.558594 71.324219 37.574219 C 71.324219 46.589844 67.816406 55.066406 61.441406 61.441406 C 55.066406 67.816406 46.589844 71.324219 37.574219 71.324219 Z M 37.574219 71.324219 "/>
<path style=" stroke:none;fill-rule:nonzero;fill:rgb(13.72549%,12.156863%,12.54902%);fill-opacity:1;" d="M 37.574219 5.023438 C 55.546875 5.023438 70.125 19.589844 70.125 37.574219 C 70.125 55.546875 55.558594 70.125 37.574219 70.125 C 19.589844 70.125 5.023438 55.558594 5.023438 37.574219 C 5.023438 19.605469 19.605469 5.023438 37.574219 5.023438 M 37.574219 2.625 C 32.863281 2.625 28.289062 3.554688 23.96875 5.371094 C 19.816406 7.125 16.066406 9.644531 12.871094 12.855469 C 9.660156 16.066406 7.140625 19.800781 5.386719 23.953125 C 3.554688 28.261719 2.640625 32.835938 2.640625 37.558594 C 2.640625 42.269531 3.570312 46.84375 5.386719 51.164062 C 7.140625 55.320312 9.660156 59.070312 12.871094 62.265625 C 16.078125 65.476562 19.816406 67.996094 23.96875 69.75 C 28.273438 71.578125 32.851562 72.496094 37.574219 72.496094 C 42.300781 72.496094 46.859375 71.566406 51.179688 69.75 C 55.335938 67.996094 59.085938 65.476562 62.28125 62.265625 C 65.488281 59.054688 68.011719 55.320312 69.765625 51.164062 C 71.59375 46.859375 72.511719 42.285156 72.511719 37.558594 C 72.511719 32.851562 71.578125 28.273438 69.765625 23.953125 C 68.011719 19.800781 65.488281 16.050781 62.28125 12.855469 C 59.070312 9.644531 55.335938 7.125 51.179688 5.371094 C 46.875 3.554688 42.300781 2.625 37.574219 2.625 Z M 37.574219 2.625 "/>
<path style=" stroke:none;fill-rule:nonzero;fill:rgb(13.72549%,12.156863%,12.54902%);fill-opacity:1;" d="M 12.929688 44.683594 L 48.074219 69.34375 C 48.074219 69.34375 66.511719 63.359375 70.351562 45.871094 L 65.566406 42.988281 L 60.601562 25.140625 L 54.539062 35.699219 L 33.703125 43.363281 L 22.574219 35.941406 C 22.574219 35.941406 16.589844 35.339844 14.550781 37.980469 C 12.523438 40.621094 12.929688 44.683594 12.929688 44.683594 Z M 12.929688 44.683594 "/>
<path style=" stroke:none;fill-rule:nonzero;fill:rgb(13.72549%,12.156863%,12.54902%);fill-opacity:1;" d="M 24.886719 26.59375 L 31.363281 25.800781 L 38.191406 30.195312 L 47.386719 36.253906 L 53.65625 41.296875 L 50.21875 44.953125 L 46.410156 48.074219 L 40.679688 50.835938 L 36.136719 50.414062 L 22.875 41.519531 Z M 24.886719 26.59375 "/>
<path style=" stroke:none;fill-rule:nonzero;fill:rgb(13.72549%,12.156863%,12.54902%);fill-opacity:1;" d="M 53.265625 27.253906 L 59.746094 26.339844 L 62.503906 44.578125 L 55.199219 44.578125 Z M 53.265625 27.253906 "/>
<path style=" stroke:none;fill-rule:nonzero;fill:rgb(100%,100%,100%);fill-opacity:1;" d="M 63.316406 44.535156 L 60.886719 25.648438 C 60.855469 25.453125 60.765625 25.273438 60.601562 25.15625 C 60.449219 25.035156 60.253906 24.976562 60.058594 25.003906 L 53.070312 26.039062 C 52.800781 26.085938 52.574219 26.28125 52.484375 26.550781 C 52.453125 26.671875 52.410156 26.789062 52.394531 26.925781 C 49.363281 25.769531 38.160156 21.871094 32.773438 24.796875 C 32.714844 24.78125 32.65625 24.765625 32.59375 24.765625 C 32.578125 24.765625 32.578125 24.765625 32.566406 24.765625 L 31.949219 24.796875 C 31.875 24.765625 31.800781 24.765625 31.710938 24.765625 L 24.78125 25.09375 C 24.601562 24.945312 24.390625 24.824219 24.136719 24.78125 L 16.558594 23.503906 C 16.199219 23.445312 15.839844 23.535156 15.554688 23.761719 C 15.269531 23.984375 15.074219 24.316406 15.03125 24.691406 L 12.601562 43.589844 C 12.554688 43.996094 12.675781 44.386719 12.929688 44.683594 C 13.183594 44.96875 13.546875 45.136719 13.921875 45.136719 C 13.933594 45.136719 13.949219 45.136719 13.949219 45.136719 L 21.195312 44.941406 C 21.78125 44.925781 22.289062 44.519531 22.441406 43.933594 L 22.738281 42.824219 L 34.890625 51.300781 C 34.921875 51.328125 34.964844 51.34375 34.996094 51.359375 C 35.039062 51.390625 36.148438 51.945312 37.46875 52.171875 C 37.859375 52.230469 38.21875 52.273438 38.550781 52.273438 C 40.171875 52.273438 41.101562 51.539062 41.609375 50.789062 C 42.136719 50.953125 42.703125 51.074219 43.273438 51.074219 C 43.453125 51.074219 43.636719 51.058594 43.800781 51.046875 C 44.863281 50.910156 45.75 50.355469 46.410156 49.410156 C 46.621094 49.109375 46.636719 48.703125 46.46875 48.390625 C 46.589844 48.40625 46.726562 48.40625 46.84375 48.40625 C 46.980469 48.40625 47.101562 48.40625 47.234375 48.390625 C 48.613281 48.269531 49.785156 47.535156 50.714844 46.199219 C 50.835938 46.035156 50.878906 45.824219 50.878906 45.628906 C 51.703125 45.570312 52.621094 45.089844 53.429688 44.21875 C 53.773438 43.84375 54.058594 43.453125 54.269531 43.066406 L 54.898438 44.941406 C 55.003906 45.238281 55.273438 45.433594 55.589844 45.433594 C 55.589844 45.433594 55.589844 45.433594 55.605469 45.433594 L 62.609375 45.328125 C 62.820312 45.328125 63.015625 45.238281 63.148438 45.074219 C 63.269531 44.96875 63.328125 44.746094 63.316406 44.535156 Z M 50.671875 43.800781 C 48.40625 43.246094 45.71875 41.476562 43.484375 39.046875 C 43.140625 38.671875 42.570312 38.65625 42.210938 39.015625 C 41.851562 39.375 41.835938 39.960938 42.179688 40.335938 C 43.246094 41.488281 45.914062 44.101562 49.15625 45.269531 C 48.554688 46.050781 47.894531 46.484375 47.101562 46.546875 C 45.03125 46.726562 42.855469 44.566406 42.824219 44.535156 C 42.808594 44.503906 42.78125 44.488281 42.75 44.476562 L 39.660156 41.925781 C 39.269531 41.609375 38.699219 41.671875 38.386719 42.074219 C 38.070312 42.480469 38.144531 43.066406 38.535156 43.378906 L 41.59375 45.898438 C 41.851562 46.15625 43.304688 47.519531 45.148438 48.121094 C 45.074219 48.179688 45.015625 48.238281 44.96875 48.316406 C 44.59375 48.839844 44.144531 49.125 43.589844 49.199219 C 42.136719 49.394531 40.273438 48.136719 39.675781 47.625 L 36.585938 45.074219 C 36.195312 44.761719 35.625 44.820312 35.308594 45.226562 C 34.996094 45.628906 35.070312 46.214844 35.460938 46.53125 L 38.550781 49.066406 C 38.59375 49.109375 39.121094 49.546875 39.898438 49.996094 C 38.699219 50.96875 36.238281 49.890625 35.863281 49.710938 L 23.25 40.949219 L 23.28125 40.859375 C 23.28125 40.84375 23.296875 40.828125 23.296875 40.816406 C 23.746094 38.851562 25.003906 28.425781 25.214844 26.59375 L 30.914062 26.355469 C 26.488281 31.425781 29.355469 40.230469 35.308594 31.394531 L 38.175781 30.824219 C 38.175781 30.824219 46.484375 36.179688 49.859375 38.640625 C 51 39.480469 52.351562 40.589844 52.785156 42.058594 C 52.664062 42.328125 52.46875 42.644531 52.15625 42.976562 C 51.523438 43.636719 50.894531 43.859375 50.671875 43.800781 Z M 56.101562 43.996094 L 55.351562 41.761719 C 55.273438 41.386719 55.183594 40.933594 55.078125 40.425781 C 55.183594 40.289062 55.230469 40.214844 55.230469 40.214844 L 53.699219 30.539062 C 53.625 29.296875 53.625 28.214844 53.761719 27.464844 L 59.550781 26.609375 L 61.769531 43.921875 Z M 56.101562 43.996094 "/>
</g>
</svg>
