<?xml version="1.0" encoding="UTF-8"?>
<svg xmlns="http://www.w3.org/2000/svg" xmlns:xlink="http://www.w3.org/1999/xlink" width="75pt" height="75pt" viewBox="0 0 75 75" version="1.1">
<defs>
<clipPath id="clip1">
  <path d="M 15 12 L 71 12 L 71 72 L 15 72 Z M 15 12 "/>
</clipPath>
<clipPath id="clip2">
  <path d="M 71.488281 37.425781 C 71.488281 56.265625 56.203125 71.550781 37.363281 71.550781 C 18.511719 71.550781 3.238281 56.28125 3.238281 37.425781 C 3.238281 18.585938 18.511719 3.300781 37.363281 3.300781 C 56.203125 3.300781 71.488281 18.585938 71.488281 37.425781 Z M 71.488281 37.425781 "/>
</clipPath>
<clipPath id="clip3">
  <path d="M 15 12 L 57 12 L 57 60 L 15 60 Z M 15 12 "/>
</clipPath>
<clipPath id="clip4">
  <path d="M 71.488281 37.425781 C 71.488281 56.265625 56.203125 71.550781 37.363281 71.550781 C 18.511719 71.550781 3.238281 56.28125 3.238281 37.425781 C 3.238281 18.585938 18.511719 3.300781 37.363281 3.300781 C 56.203125 3.300781 71.488281 18.585938 71.488281 37.425781 Z M 71.488281 37.425781 "/>
</clipPath>
</defs>
<g id="surface1">
<path style=" stroke:none;fill-rule:nonzero;fill:rgb(100%,52.941176%,11.372549%);fill-opacity:1;" d="M 37.679688 71.28125 C 28.664062 71.28125 20.203125 67.769531 13.828125 61.394531 C 7.453125 55.019531 3.945312 46.558594 3.945312 37.546875 C 3.945312 28.53125 7.453125 20.070312 13.828125 13.695312 C 20.203125 7.320312 28.664062 3.808594 37.679688 3.808594 C 56.28125 3.808594 71.414062 18.945312 71.414062 37.546875 C 71.414062 46.558594 67.90625 55.019531 61.53125 61.394531 C 55.15625 67.769531 46.679688 71.28125 37.679688 71.28125 Z M 37.679688 71.28125 "/>
<path style=" stroke:none;fill-rule:nonzero;fill:rgb(87.058824%,48.235294%,13.333333%);fill-opacity:1;" d="M 37.679688 5.011719 C 55.648438 5.011719 70.214844 19.574219 70.214844 37.546875 C 70.214844 55.515625 55.648438 70.078125 37.679688 70.078125 C 19.710938 70.078125 5.144531 55.515625 5.144531 37.546875 C 5.128906 19.574219 19.710938 5.011719 37.679688 5.011719 M 37.679688 2.625 C 32.96875 2.625 28.394531 3.554688 24.089844 5.371094 C 19.933594 7.125 16.199219 9.644531 12.988281 12.855469 C 9.78125 16.066406 7.261719 19.800781 5.503906 23.953125 C 3.691406 28.261719 2.761719 32.835938 2.761719 37.546875 C 2.761719 42.253906 3.691406 46.828125 5.503906 51.136719 C 7.261719 55.289062 9.78125 59.023438 12.988281 62.234375 C 16.199219 65.445312 19.933594 67.964844 24.089844 69.71875 C 28.394531 71.535156 32.96875 72.464844 37.679688 72.464844 C 42.390625 72.464844 46.964844 71.535156 51.269531 69.71875 C 55.425781 67.964844 59.160156 65.445312 62.371094 62.234375 C 65.578125 59.023438 68.101562 55.289062 69.855469 51.136719 C 71.671875 46.828125 72.601562 42.253906 72.601562 37.546875 C 72.601562 32.835938 71.671875 28.261719 69.855469 23.953125 C 68.101562 19.800781 65.578125 16.066406 62.371094 12.855469 C 59.160156 9.644531 55.425781 7.125 51.269531 5.371094 C 46.964844 3.539062 42.390625 2.625 37.679688 2.625 Z M 37.679688 2.625 "/>
<g clip-path="url(#clip1)" clip-rule="nonzero">
<g clip-path="url(#clip2)" clip-rule="nonzero">
<path style=" stroke:none;fill-rule:nonzero;fill:rgb(87.058824%,48.235294%,13.333333%);fill-opacity:1;" d="M 15.660156 52.320312 L 27.75 69.855469 C 27.75 69.855469 51.796875 82.230469 70.363281 50.566406 L 56.851562 27.628906 L 46.875 21.226562 L 33.929688 12.210938 L 34.410156 20.519531 L 15.660156 31.199219 L 15.539062 41.640625 Z M 15.660156 52.320312 "/>
</g>
</g>
<g clip-path="url(#clip3)" clip-rule="nonzero">
<g clip-path="url(#clip4)" clip-rule="evenodd">
<path style=" stroke:none;fill-rule:evenodd;fill:rgb(100%,100%,100%);fill-opacity:1;" d="M 33.734375 12.089844 C 37.410156 14.566406 40.726562 16.816406 43.753906 18.839844 C 44.65625 19.441406 45.523438 20.023438 46.363281 20.59375 L 56.730469 27.554688 L 56.730469 44.804688 C 55.214844 44.339844 53.59375 43.84375 51.871094 43.320312 C 49.441406 42.570312 46.738281 41.746094 43.769531 40.84375 C 40.753906 39.929688 37.425781 38.910156 33.75 37.785156 L 33.75 37.800781 L 33.75 37.785156 C 30.164062 38.550781 26.820312 39.269531 23.699219 39.945312 C 20.789062 40.574219 18.074219 41.160156 15.511719 41.699219 L 15.511719 38.203125 C 20.789062 36.839844 26.820312 35.28125 33.734375 33.511719 L 46.363281 30.253906 L 46.363281 20.609375 L 33.734375 24.960938 C 26.820312 27.34375 20.789062 29.414062 15.511719 31.230469 L 15.511719 27.734375 C 18.074219 26.746094 20.804688 25.679688 23.699219 24.554688 C 26.820312 23.355469 30.164062 22.066406 33.75 20.671875 C 33.734375 17.804688 33.734375 14.953125 33.734375 12.089844 Z M 56.730469 50.550781 L 56.730469 59.144531 L 33.734375 59.144531 C 33.734375 56.296875 33.734375 53.445312 33.734375 50.59375 C 30.148438 50.910156 26.804688 51.195312 23.683594 51.464844 C 20.773438 51.703125 18.046875 51.945312 15.496094 52.171875 L 15.496094 48.675781 C 18.058594 48.34375 20.773438 48 23.683594 47.625 L 33.71875 46.335938 L 33.734375 46.351562 C 37.410156 47.023438 40.726562 47.640625 43.753906 48.179688 C 46.738281 48.71875 49.425781 49.214844 51.855469 49.664062 C 53.578125 49.964844 55.199219 50.265625 56.730469 50.550781 Z M 56.730469 50.550781 "/>
</g>
</g>
</g>
</svg>
