<?xml version="1.0" encoding="UTF-8"?>
<svg xmlns="http://www.w3.org/2000/svg" xmlns:xlink="http://www.w3.org/1999/xlink" width="75pt" height="75pt" viewBox="0 0 75 75" version="1.1">
<g id="surface1">
<path style=" stroke:none;fill-rule:nonzero;fill:rgb(48.235294%,47.45098%,47.45098%);fill-opacity:1;" d="M 37.800781 71.101562 C 28.921875 71.101562 20.566406 67.636719 14.28125 61.363281 C 7.996094 55.078125 4.546875 46.726562 4.546875 37.84375 C 4.546875 28.964844 8.011719 20.609375 14.28125 14.324219 C 20.566406 8.039062 28.921875 4.589844 37.800781 4.589844 C 46.679688 4.589844 55.035156 8.054688 61.320312 14.324219 C 67.605469 20.609375 71.054688 28.964844 71.054688 37.84375 C 71.054688 46.726562 67.589844 55.078125 61.320312 61.363281 C 55.035156 67.636719 46.679688 71.101562 37.800781 71.101562 Z M 37.800781 71.101562 "/>
<path style=" stroke:none;fill-rule:nonzero;fill:rgb(13.72549%,12.156863%,12.54902%);fill-opacity:1;" d="M 37.800781 5.761719 C 55.515625 5.761719 69.886719 20.128906 69.886719 37.84375 C 69.886719 55.558594 55.515625 69.929688 37.800781 69.929688 C 20.085938 69.929688 5.714844 55.558594 5.714844 37.84375 C 5.714844 20.128906 20.085938 5.761719 37.800781 5.761719 M 37.800781 3.40625 C 33.148438 3.40625 28.636719 4.320312 24.390625 6.105469 C 20.296875 7.84375 16.605469 10.320312 13.441406 13.484375 C 10.273438 16.648438 7.800781 20.324219 6.058594 24.433594 C 4.261719 28.679688 3.34375 33.195312 3.34375 37.84375 C 3.34375 42.496094 4.261719 47.011719 6.058594 51.253906 C 7.800781 55.351562 10.273438 59.039062 13.441406 62.203125 C 16.605469 65.371094 20.28125 67.84375 24.390625 69.585938 C 28.636719 71.386719 33.148438 72.300781 37.800781 72.300781 C 42.449219 72.300781 46.964844 71.386719 51.210938 69.585938 C 55.304688 67.84375 58.996094 65.371094 62.160156 62.203125 C 65.324219 59.039062 67.800781 55.363281 69.539062 51.253906 C 71.339844 47.011719 72.238281 42.496094 72.238281 37.84375 C 72.238281 33.195312 71.324219 28.679688 69.539062 24.433594 C 67.800781 20.339844 65.324219 16.648438 62.160156 13.484375 C 58.996094 10.320312 55.320312 7.84375 51.210938 6.105469 C 46.964844 4.304688 42.449219 3.40625 37.800781 3.40625 Z M 37.800781 3.40625 "/>
<path style=" stroke:none;fill-rule:evenodd;fill:rgb(13.72549%,12.156863%,12.54902%);fill-opacity:1;" d="M 17.578125 39.78125 L 46.605469 69.285156 C 46.605469 69.285156 62.65625 67.515625 69.976562 47.566406 C 71.984375 37.648438 71.039062 35.175781 71.039062 35.175781 L 54.628906 20.191406 L 36.691406 27.269531 L 34.09375 27.269531 L 31.378906 23.851562 L 29.023438 23.851562 C 29.023438 23.851562 25.84375 25.621094 25.84375 25.980469 C 25.84375 26.324219 17.578125 39.78125 17.578125 39.78125 Z M 17.578125 39.78125 "/>
<path style=" stroke:none;fill-rule:evenodd;fill:rgb(100%,100%,100%);fill-opacity:1;" d="M 27.285156 18.464844 C 31.816406 18.464844 35.773438 21.074219 37.921875 24.960938 C 40.066406 21.074219 44.023438 18.464844 48.554688 18.464844 C 55.363281 18.464844 60.898438 24.375 60.898438 31.664062 C 60.898438 35.820312 59.101562 39.539062 56.28125 41.953125 L 37.921875 60.316406 L 20.429688 42.824219 L 25.261719 42.824219 C 25.980469 42.824219 26.566406 42.328125 26.714844 41.65625 L 28.933594 32.953125 L 34.289062 50.910156 L 35.714844 50.488281 L 34.289062 50.910156 C 34.53125 51.691406 35.355469 52.140625 36.136719 51.914062 C 36.675781 51.75 37.050781 51.316406 37.171875 50.804688 L 41.640625 35.746094 L 43.246094 41.773438 L 44.683594 41.398438 L 43.246094 41.773438 C 43.425781 42.433594 44.023438 42.886719 44.683594 42.886719 L 50.011719 42.886719 C 50.835938 42.886719 51.496094 42.226562 51.496094 41.398438 C 51.496094 40.574219 50.820312 39.914062 50.011719 39.914062 L 45.839844 39.914062 L 43.199219 29.984375 C 43.09375 29.460938 42.71875 29.011719 42.164062 28.84375 C 41.371094 28.605469 40.546875 29.054688 40.320312 29.851562 L 41.746094 30.269531 L 40.320312 29.851562 L 35.699219 45.269531 L 30.269531 27.03125 C 30.148438 26.503906 29.746094 26.070312 29.191406 25.933594 C 28.394531 25.726562 27.585938 26.21875 27.375 27.015625 L 28.816406 27.375 L 27.375 27.015625 L 24.105469 39.855469 L 17.59375 39.855469 C 15.929688 37.605469 14.941406 34.769531 14.941406 31.664062 C 14.941406 24.375 20.460938 18.464844 27.285156 18.464844 Z M 27.285156 18.464844 "/>
</g>
</svg>
