<?xml version="1.0" encoding="UTF-8"?>
<svg xmlns="http://www.w3.org/2000/svg" xmlns:xlink="http://www.w3.org/1999/xlink" width="75pt" height="75pt" viewBox="0 0 75 75" version="1.1">
<defs>
<clipPath id="clip1">
  <path d="M 20 15 L 72 15 L 72 71 L 20 71 Z M 20 15 "/>
</clipPath>
<clipPath id="clip2">
  <path d="M 71.25 37.695312 C 71.25 56.414062 56.085938 71.578125 37.363281 71.578125 C 18.644531 71.578125 3.480469 56.398438 3.480469 37.695312 C 3.480469 18.976562 18.644531 3.808594 37.363281 3.808594 C 56.085938 3.808594 71.25 18.976562 71.25 37.695312 Z M 71.25 37.695312 "/>
</clipPath>
<clipPath id="clip3">
  <path d="M 16 14 L 59 14 L 59 60 L 16 60 Z M 16 14 "/>
</clipPath>
<clipPath id="clip4">
  <path d="M 71.25 37.695312 C 71.25 56.414062 56.085938 71.578125 37.363281 71.578125 C 18.644531 71.578125 3.480469 56.398438 3.480469 37.695312 C 3.480469 18.976562 18.644531 3.808594 37.363281 3.808594 C 56.085938 3.808594 71.25 18.976562 71.25 37.695312 Z M 71.25 37.695312 "/>
</clipPath>
</defs>
<g id="surface1">
<path style=" stroke:none;fill-rule:nonzero;fill:rgb(100%,52.941176%,11.372549%);fill-opacity:1;" d="M 37.679688 71.296875 C 28.738281 71.296875 20.324219 67.816406 13.996094 61.484375 C 7.664062 55.171875 4.183594 46.753906 4.183594 37.800781 C 4.183594 28.859375 7.664062 20.445312 13.996094 14.113281 C 20.324219 7.785156 28.726562 4.304688 37.679688 4.304688 C 46.621094 4.304688 55.035156 7.785156 61.363281 14.113281 C 67.695312 20.445312 71.175781 28.84375 71.175781 37.800781 C 71.175781 46.738281 67.695312 55.15625 61.363281 61.484375 C 55.035156 67.816406 46.621094 71.296875 37.679688 71.296875 Z M 37.679688 71.296875 "/>
<path style=" stroke:none;fill-rule:nonzero;fill:rgb(87.058824%,48.235294%,13.333333%);fill-opacity:1;" d="M 37.679688 5.488281 C 55.53125 5.488281 69.988281 19.949219 69.988281 37.800781 C 69.988281 55.648438 55.53125 70.109375 37.679688 70.109375 C 19.828125 70.109375 5.371094 55.648438 5.371094 37.800781 C 5.371094 19.964844 19.828125 5.488281 37.679688 5.488281 M 37.679688 3.136719 C 33 3.136719 28.453125 4.050781 24.179688 5.863281 C 20.054688 7.605469 16.351562 10.109375 13.15625 13.289062 C 9.976562 16.46875 7.46875 20.175781 5.730469 24.316406 C 3.929688 28.589844 3 33.121094 3 37.800781 C 3 42.480469 3.914062 47.023438 5.730469 51.300781 C 7.46875 55.425781 9.976562 59.128906 13.15625 62.324219 C 16.335938 65.503906 20.039062 68.011719 24.179688 69.75 C 28.453125 71.566406 33 72.480469 37.679688 72.480469 C 42.359375 72.480469 46.90625 71.566406 51.179688 69.75 C 55.304688 68.011719 59.011719 65.503906 62.203125 62.324219 C 65.386719 59.144531 67.890625 55.441406 69.628906 51.300781 C 71.445312 47.023438 72.359375 42.480469 72.359375 37.800781 C 72.359375 33.121094 71.445312 28.574219 69.628906 24.300781 C 67.890625 20.175781 65.386719 16.46875 62.203125 13.273438 C 59.023438 10.09375 55.320312 7.589844 51.179688 5.851562 C 46.90625 4.050781 42.359375 3.136719 37.679688 3.136719 Z M 37.679688 3.136719 "/>
<g clip-path="url(#clip1)" clip-rule="nonzero">
<g clip-path="url(#clip2)" clip-rule="nonzero">
<path style=" stroke:none;fill-rule:nonzero;fill:rgb(87.058824%,48.235294%,13.333333%);fill-opacity:1;" d="M 24.375 18.703125 C 24.375 18.703125 20.59375 20.355469 22.125 33.960938 L 22.125 45.898438 L 20.699219 46.378906 C 20.699219 46.378906 20.578125 53.820312 21.164062 55.363281 C 21.75 56.894531 21.40625 59.386719 21.40625 59.386719 L 25.785156 69.195312 C 25.785156 69.195312 50.175781 76.15625 63.253906 59.503906 C 75.433594 44.023438 70.816406 32.085938 70.816406 32.085938 L 51.316406 15.539062 Z M 24.375 18.703125 "/>
</g>
</g>
<g clip-path="url(#clip3)" clip-rule="nonzero">
<g clip-path="url(#clip4)" clip-rule="nonzero">
<path style=" stroke:none;fill-rule:nonzero;fill:rgb(100%,100%,100%);fill-opacity:1;" d="M 58.363281 21.886719 L 56.011719 21.585938 C 55.964844 21.585938 55.933594 21.601562 55.890625 21.613281 L 53.296875 20.835938 C 53.234375 20.265625 53.191406 19.921875 53.191406 19.921875 C 52.453125 15.40625 51.148438 14.746094 49.273438 14.851562 L 26.191406 14.851562 C 23.398438 14.851562 23.054688 15.886719 22.273438 19.921875 C 22.273438 19.921875 22.230469 20.234375 22.171875 20.789062 L 19.453125 21.601562 C 19.410156 21.585938 19.378906 21.570312 19.335938 21.570312 L 16.980469 21.871094 C 16.679688 21.929688 16.441406 22.109375 16.441406 22.410156 L 16.441406 28.109375 C 16.441406 28.410156 16.679688 28.605469 16.980469 28.648438 L 19.335938 28.859375 C 19.363281 28.859375 19.394531 28.84375 19.425781 28.84375 L 21.285156 29.773438 C 21.179688 31.335938 21.121094 32.863281 21.121094 34.125 C 21.136719 36.914062 21.136719 40.320312 21.136719 45.089844 C 21.136719 45.105469 20.519531 45.136719 20.265625 45.148438 C 20.203125 45.148438 20.160156 45.253906 20.160156 45.285156 C 20.160156 49.140625 20.144531 54.613281 20.144531 54.613281 C 20.144531 55.753906 20.535156 56.398438 21.179688 56.761719 L 21.179688 58.859375 C 21.179688 59.25 21.496094 59.566406 21.886719 59.566406 L 26.339844 59.566406 C 26.730469 59.566406 27.046875 59.25 27.046875 58.859375 L 27.046875 57.210938 L 48.285156 57.210938 L 48.285156 58.859375 C 48.285156 59.25 48.601562 59.566406 48.988281 59.566406 L 53.445312 59.566406 C 53.835938 59.566406 54.148438 59.25 54.148438 58.859375 L 54.148438 56.820312 C 54.886719 56.476562 55.320312 55.816406 55.320312 54.601562 C 55.320312 54.601562 55.320312 49.125 55.320312 45.285156 C 55.320312 45.238281 55.273438 45.136719 55.214844 45.121094 C 54.960938 45.105469 54.328125 45.074219 54.328125 45.058594 L 54.328125 34.261719 C 54.328125 33 54.238281 31.378906 54.136719 29.699219 L 55.921875 28.816406 C 55.949219 28.816406 55.980469 28.828125 56.011719 28.828125 L 58.363281 28.621094 C 58.664062 28.574219 58.90625 28.378906 58.90625 28.078125 L 58.90625 22.378906 C 58.90625 22.125 58.664062 21.945312 58.363281 21.886719 Z M 21.359375 28.890625 L 19.875 28.15625 L 19.875 22.351562 L 22.066406 21.691406 C 21.855469 23.414062 21.554688 26.160156 21.359375 28.890625 Z M 25.726562 54.886719 L 22.183594 54.886719 C 21.914062 54.886719 21.691406 54.660156 21.691406 54.390625 L 21.691406 48.71875 C 21.691406 48.449219 21.914062 48.226562 22.183594 48.226562 L 24.421875 48.226562 C 24.691406 48.226562 24.855469 48.464844 24.914062 48.71875 C 24.914062 48.71875 26.128906 54.03125 26.191406 54.300781 C 26.265625 54.703125 25.996094 54.886719 25.726562 54.886719 Z M 25.828125 33.511719 C 25.320312 33.449219 22.289062 33.136719 22.09375 31.246094 C 21.929688 29.625 22.574219 21.914062 22.574219 21.914062 C 22.574219 21.644531 22.800781 21.433594 23.054688 21.433594 L 52.09375 21.433594 C 52.363281 21.433594 52.574219 21.644531 52.574219 21.914062 C 52.574219 21.914062 53.324219 29.761719 53.21875 31.246094 C 53.113281 32.730469 49.949219 33.511719 49.320312 33.511719 C 48.734375 33.511719 26.355469 33.554688 25.828125 33.511719 Z M 46.859375 42.78125 C 46.828125 42.808594 46.726562 42.855469 46.5 42.855469 C 38.578125 42.855469 37.230469 42.871094 29.519531 42.871094 C 29.265625 42.871094 29.160156 42.839844 29.160156 42.808594 C 29.160156 42.808594 28.214844 41.96875 28.425781 41.96875 L 47.371094 41.96875 C 47.578125 41.96875 46.859375 42.78125 46.859375 42.78125 Z M 46.859375 44.460938 C 46.828125 44.488281 46.726562 44.535156 46.5 44.535156 C 38.578125 44.535156 37.230469 44.566406 29.519531 44.566406 C 29.265625 44.566406 29.160156 44.535156 29.160156 44.503906 C 29.160156 44.503906 28.214844 43.664062 28.425781 43.664062 L 47.371094 43.664062 C 47.578125 43.648438 46.859375 44.460938 46.859375 44.460938 Z M 46.859375 41.101562 C 46.828125 41.128906 46.726562 41.160156 46.5 41.160156 C 38.578125 41.160156 37.230469 41.191406 29.519531 41.191406 C 29.265625 41.191406 29.160156 41.160156 29.160156 41.128906 C 29.160156 41.128906 28.214844 40.289062 28.425781 40.289062 L 47.371094 40.289062 C 47.578125 40.289062 46.859375 41.101562 46.859375 41.101562 Z M 46.859375 39.433594 C 46.828125 39.464844 46.726562 39.496094 46.5 39.496094 C 38.578125 39.496094 37.230469 39.523438 29.519531 39.523438 C 29.265625 39.523438 29.160156 39.496094 29.160156 39.464844 C 29.160156 39.464844 28.214844 38.625 28.425781 38.625 L 47.371094 38.625 C 47.578125 38.609375 46.859375 39.433594 46.859375 39.433594 Z M 47.386719 53.851562 C 47.386719 54.046875 47.25 54.179688 47.011719 54.195312 C 39.148438 54.449219 36.058594 54.480469 28.183594 54.195312 C 27.929688 54.179688 27.808594 54.046875 27.808594 53.851562 L 27.523438 52.484375 C 27.523438 52.289062 27.601562 52.140625 27.898438 52.140625 C 31.363281 52.140625 43.875 51.988281 47.398438 51.988281 C 47.671875 51.988281 47.773438 52.140625 47.773438 52.335938 Z M 48.375 49.996094 C 48.375 50.203125 48.226562 50.371094 47.96875 50.371094 C 39.300781 50.640625 35.910156 50.683594 27.226562 50.371094 C 26.941406 50.355469 26.820312 50.203125 26.820312 49.996094 L 26.503906 48.496094 C 26.503906 48.285156 26.59375 48.121094 26.910156 48.121094 C 30.734375 48.121094 44.503906 47.953125 48.40625 47.953125 C 48.703125 47.953125 48.808594 48.121094 48.808594 48.328125 Z M 53.398438 54.226562 C 53.398438 54.496094 53.175781 54.71875 52.90625 54.71875 L 49.363281 54.71875 C 49.09375 54.71875 48.824219 54.539062 48.898438 54.148438 C 48.960938 53.878906 50.175781 48.570312 50.175781 48.570312 C 50.234375 48.316406 50.398438 48.074219 50.671875 48.074219 L 52.90625 48.074219 C 53.175781 48.074219 53.398438 48.300781 53.398438 48.570312 Z M 55.46875 28.15625 L 54.074219 28.84375 C 53.863281 26.175781 53.59375 23.460938 53.398438 21.734375 L 55.46875 22.351562 Z M 55.46875 28.15625 "/>
</g>
</g>
</g>
</svg>
