<?xml version="1.0" encoding="UTF-8"?>
<svg xmlns="http://www.w3.org/2000/svg" xmlns:xlink="http://www.w3.org/1999/xlink" width="75pt" height="75pt" viewBox="0 0 75 75" version="1.1">
<defs>
<clipPath id="clip1">
  <path d="M 16 16 L 71 16 L 71 72 L 16 72 Z M 16 16 "/>
</clipPath>
<clipPath id="clip2">
  <path d="M 71.25 37.828125 C 71.25 56.460938 56.160156 71.550781 37.53125 71.550781 C 18.898438 71.550781 3.808594 56.460938 3.808594 37.828125 C 3.808594 19.199219 18.898438 4.109375 37.53125 4.109375 C 56.160156 4.109375 71.25 19.199219 71.25 37.828125 Z M 71.25 37.828125 "/>
</clipPath>
<clipPath id="clip3">
  <path d="M 16 16 L 59 16 L 59 61 L 16 61 Z M 16 16 "/>
</clipPath>
<clipPath id="clip4">
  <path d="M 71.25 37.828125 C 71.25 56.460938 56.160156 71.550781 37.53125 71.550781 C 18.898438 71.550781 3.808594 56.460938 3.808594 37.828125 C 3.808594 19.199219 18.898438 4.109375 37.53125 4.109375 C 56.160156 4.109375 71.25 19.199219 71.25 37.828125 Z M 71.25 37.828125 "/>
</clipPath>
</defs>
<g id="surface1">
<path style=" stroke:none;fill-rule:nonzero;fill:rgb(100%,52.941176%,11.372549%);fill-opacity:1;" d="M 37.84375 71.28125 C 28.933594 71.28125 20.566406 67.816406 14.28125 61.515625 C 7.980469 55.214844 4.515625 46.84375 4.515625 37.949219 C 4.515625 29.054688 7.980469 20.683594 14.28125 14.386719 C 20.578125 8.085938 28.949219 4.621094 37.84375 4.621094 C 46.738281 4.621094 55.109375 8.085938 61.410156 14.386719 C 67.710938 20.683594 71.175781 29.054688 71.175781 37.949219 C 71.175781 46.859375 67.710938 55.214844 61.410156 61.515625 C 55.109375 67.816406 46.738281 71.28125 37.84375 71.28125 Z M 37.84375 71.28125 "/>
<path style=" stroke:none;fill-rule:nonzero;fill:rgb(87.058824%,48.235294%,13.333333%);fill-opacity:1;" d="M 37.84375 5.789062 C 55.605469 5.789062 69.988281 20.191406 69.988281 37.949219 C 69.988281 55.710938 55.589844 70.109375 37.84375 70.109375 C 20.085938 70.109375 5.683594 55.710938 5.683594 37.949219 C 5.683594 20.191406 20.085938 5.789062 37.84375 5.789062 M 37.84375 3.433594 C 33.195312 3.433594 28.664062 4.351562 24.421875 6.148438 C 20.308594 7.890625 16.621094 10.378906 13.453125 13.546875 C 10.289062 16.710938 7.800781 20.398438 6.058594 24.511719 C 4.261719 28.769531 3.34375 33.285156 3.34375 37.933594 C 3.34375 42.585938 4.261719 47.113281 6.058594 51.359375 C 7.800781 55.46875 10.289062 59.160156 13.453125 62.324219 C 16.621094 65.488281 20.308594 67.980469 24.421875 69.71875 C 28.679688 71.519531 33.195312 72.433594 37.84375 72.433594 C 42.496094 72.433594 47.023438 71.519531 51.269531 69.71875 C 55.378906 67.980469 59.070312 65.488281 62.234375 62.324219 C 65.398438 59.160156 67.890625 55.46875 69.628906 51.359375 C 71.429688 47.101562 72.34375 42.585938 72.34375 37.933594 C 72.34375 33.285156 71.429688 28.753906 69.628906 24.511719 C 67.890625 20.398438 65.398438 16.710938 62.234375 13.546875 C 59.070312 10.378906 55.378906 7.890625 51.269531 6.148438 C 47.023438 4.351562 42.496094 3.433594 37.84375 3.433594 Z M 37.84375 3.433594 "/>
<g clip-path="url(#clip1)" clip-rule="nonzero">
<g clip-path="url(#clip2)" clip-rule="nonzero">
<path style=" stroke:none;fill-rule:nonzero;fill:rgb(87.058824%,48.235294%,13.333333%);fill-opacity:1;" d="M 16.648438 46.949219 L 28.035156 69.871094 C 28.035156 69.871094 51.796875 82.109375 70.140625 50.820312 L 55.5 24.523438 L 41.671875 16.710938 L 34.378906 23.054688 L 33.433594 30.34375 L 28.726562 36.929688 L 29.671875 39.75 Z M 16.648438 46.949219 "/>
</g>
</g>
<g clip-path="url(#clip3)" clip-rule="nonzero">
<g clip-path="url(#clip4)" clip-rule="nonzero">
<path style=" stroke:none;fill-rule:nonzero;fill:rgb(100%,100%,100%);fill-opacity:1;" d="M 58.664062 46.949219 L 55.515625 52.394531 C 54.898438 53.460938 53.519531 53.835938 52.453125 53.21875 L 43.050781 47.789062 L 43.050781 58.648438 C 43.050781 59.878906 42.046875 60.898438 40.800781 60.898438 L 34.515625 60.898438 C 33.285156 60.898438 32.265625 59.894531 32.265625 58.648438 L 32.265625 47.789062 L 22.859375 53.21875 C 21.796875 53.835938 20.414062 53.476562 19.800781 52.394531 L 16.648438 46.949219 C 16.035156 45.886719 16.394531 44.503906 17.476562 43.890625 L 26.878906 38.460938 L 17.460938 33.03125 C 16.394531 32.414062 16.019531 31.035156 16.636719 29.96875 L 19.769531 24.523438 C 20.386719 23.460938 21.765625 23.085938 22.828125 23.699219 L 32.234375 29.128906 L 32.234375 18.269531 C 32.234375 17.039062 33.238281 16.019531 34.484375 16.019531 L 40.800781 16.019531 C 42.03125 16.019531 43.050781 17.023438 43.050781 18.269531 L 43.050781 29.128906 L 52.453125 23.699219 C 53.519531 23.085938 54.898438 23.460938 55.515625 24.523438 L 58.664062 29.96875 C 59.28125 31.035156 58.921875 32.414062 57.839844 33.03125 L 48.433594 38.460938 L 57.839844 43.890625 C 58.90625 44.503906 59.28125 45.886719 58.664062 46.949219 Z M 38.011719 21.195312 C 36.316406 21.195312 34.921875 22.574219 34.921875 24.285156 C 34.921875 25.53125 35.65625 26.609375 36.734375 27.089844 L 36.824219 29.460938 L 36.929688 32.265625 L 37.125 37.484375 C 37.335938 37.394531 37.558594 37.304688 37.769531 37.214844 C 38.144531 37.066406 38.503906 36.898438 38.851562 36.75 L 39.015625 32.894531 L 39.148438 29.894531 L 39.269531 27.089844 C 40.335938 26.609375 41.085938 25.53125 41.085938 24.285156 C 41.085938 22.574219 39.703125 21.195312 38.011719 21.195312 Z M 37.230469 39.960938 L 37.320312 42.449219 L 37.410156 44.59375 L 37.546875 47.953125 C 37.828125 47.773438 38.113281 47.578125 38.398438 47.386719 L 38.503906 44.878906 L 38.59375 42.824219 L 38.746094 39.390625 C 38.699219 39.40625 38.640625 39.433594 38.578125 39.449219 C 38.113281 39.613281 37.648438 39.78125 37.230469 39.960938 Z M 37.621094 49.890625 L 37.679688 51.433594 L 37.738281 53.070312 L 37.933594 58.035156 L 38.144531 53.175781 L 38.203125 51.585938 L 38.296875 49.453125 C 38.265625 49.46875 38.234375 49.484375 38.203125 49.515625 C 38.023438 49.636719 37.828125 49.769531 37.621094 49.890625 Z M 36.074219 31.710938 L 36.015625 30.136719 C 34.980469 30.269531 33.929688 30.703125 32.925781 31.53125 C 32.625 31.785156 31.816406 32.101562 31.664062 32.503906 C 30.929688 34.546875 31.378906 36.285156 33.480469 33.675781 C 33.675781 33.433594 33.691406 33.015625 33.898438 32.820312 C 34.605469 32.175781 35.339844 31.828125 36.074219 31.710938 Z M 39 52.5 L 38.984375 52.785156 C 39.765625 53.039062 40.363281 53.386719 40.378906 54.058594 C 40.394531 54.734375 39.898438 55.679688 39.210938 56.503906 C 40.246094 55.425781 40.46875 54.601562 40.46875 54.015625 C 40.5 53.234375 39.839844 52.816406 39 52.5 Z M 39.945312 30.929688 L 39.871094 32.671875 C 40.890625 33.375 41.578125 34.273438 41.566406 34.816406 C 41.550781 35.820312 40.753906 36.496094 39.675781 37.050781 C 38.671875 37.574219 37.425781 38.011719 36.34375 38.550781 C 34.964844 39.253906 33.839844 40.15625 33.839844 41.65625 C 33.839844 42.675781 35.101562 43.261719 36.539062 43.695312 L 36.511719 42.855469 C 35.503906 42.523438 34.753906 42.136719 34.800781 41.550781 C 34.859375 40.695312 35.488281 40.140625 36.390625 39.675781 C 37.304688 39.195312 38.503906 38.835938 39.613281 38.371094 C 41.371094 37.648438 42.929688 36.691406 42.929688 34.695312 C 42.929688 33.480469 41.699219 31.890625 39.945312 30.929688 Z M 39.390625 43.710938 L 39.359375 44.460938 C 40.183594 44.714844 40.769531 44.96875 40.785156 45.34375 C 40.800781 46.171875 40.109375 46.890625 39.226562 47.550781 C 38.445312 48.136719 37.5 48.675781 36.765625 49.214844 C 36.058594 49.726562 35.535156 50.234375 35.503906 50.773438 C 35.460938 51.511719 36.074219 51.898438 36.886719 52.171875 L 36.871094 51.824219 C 36.253906 51.585938 35.804688 51.300781 35.820312 50.804688 C 35.835938 50.445312 36.226562 50.085938 36.796875 49.695312 C 37.453125 49.230469 38.371094 48.75 39.210938 48.179688 C 40.378906 47.386719 41.398438 46.46875 41.429688 45.300781 C 41.429688 44.566406 40.53125 44.085938 39.390625 43.710938 Z M 39.390625 43.710938 "/>
</g>
</g>
</g>
</svg>
