<?xml version="1.0" encoding="utf-8"?>
<!-- Generator: Adobe Illustrator 23.0.6, SVG Export Plug-In . SVG Version: 6.00 Build 0)  -->
<svg version="1.1" id="Layer_1" xmlns="http://www.w3.org/2000/svg" xmlns:xlink="http://www.w3.org/1999/xlink" x="0px" y="0px"
	 viewBox="0 0 1200 800" style="enable-background:new 0 0 1200 800;" xml:space="preserve">
<style type="text/css">
	.st0{fill:#FF871D;}
	.st1{fill-rule:evenodd;clip-rule:evenodd;fill:none;}
	.st2{fill:#231F20;}
	.st3{font-family:'EurostileRegular';}
	.st4{font-size:122.4268px;}
	.st5{font-family:'EurostileBold';}
	.st6{font-size:47px;}
</style>
<g>
	<g>
		<path class="st0" d="M581.9,235.2c79.6-44.8,152.3-56,172.7-23.2c23.9,38.5-33.3,123-127.8,188.8c-31,21.6-62.3,38.5-91,50.1
			c41.5-33.2,80.9-73,109.4-112.8c60.9-84.8,49.6-137.3-25.2-117.2C608.1,224.2,595.3,229,581.9,235.2z"/>
		<path class="st0" d="M548.2,243.5c-78.5-46.5-124.6-103.9-106.4-138c21.4-40,123.2-32.7,227.4,16.3c34.2,16.1,64.5,34.7,88.9,53.8
			c-49.5-19.3-103.6-33.5-152.4-38.4c-103.9-10.3-143.7,25.7-88.9,80.5C525.5,226.4,536.1,235.1,548.2,243.5z"/>
		<path class="st0" d="M572,265.7c-1,91.3-27.7,159.9-66.3,161.1c-45.3,1.5-89.9-90.3-99.6-205c-3.2-37.7-2.2-73.2,2.1-103.9
			c8,52.5,22.8,106.5,43,151.1c43,95.1,94.1,111.6,114.1,36.7C568.5,293.9,570.7,280.4,572,265.7z"/>
	</g>
	<rect x="45.1" y="487.3" class="st1" width="1081.8" height="233"/>
	<text transform="matrix(1.2 0 0 1 46.4279 579.9277)"><tspan x="0" y="0" class="st2 st3 st4">Dynamic Network</tspan><tspan x="294.1" y="104.4" class="st0 st3 st4">Group</tspan></text>
	<g>
		<text transform="matrix(1.1 0 0 1 1126.882 535.6729)" class="st2 st5 st6">®</text>
	</g>
</g>
</svg>
