<?xml version="1.0" encoding="utf-8"?>
<!-- Generator: Adobe Illustrator 23.0.6, SVG Export Plug-In . SVG Version: 6.00 Build 0)  -->
<svg version="1.1" id="Layer_1" xmlns="http://www.w3.org/2000/svg" xmlns:xlink="http://www.w3.org/1999/xlink" x="0px" y="0px"
	 viewBox="0 0 1200 800" style="enable-background:new 0 0 1200 800;" xml:space="preserve">
<style type="text/css">
	.st0{fill:#FF871D;}
	.st1{fill:#231F20;}
	.st2{fill-rule:evenodd;clip-rule:evenodd;fill:none;}
	.st3{font-family:'EurostileRegular';}
	.st4{font-size:124.4635px;}
</style>
<g>
	<g>
		<path class="st0" d="M572.9,227.2c80.9-45.5,154.8-56.9,175.6-23.5c24.3,39.1-33.8,125.1-129.9,191.9
			c-31.6,22-63.3,39.1-92.5,50.9c42.2-33.7,82.2-74.2,111.2-114.7c61.9-86.2,50.4-139.6-25.7-119.1
			C599.5,215.9,586.5,220.9,572.9,227.2z"/>
		<path class="st0" d="M538.6,235.7C458.7,188.4,411.9,130,430.4,95.4c21.7-40.6,125.2-33.2,231.1,16.5
			c34.8,16.3,65.5,35.2,90.4,54.7c-50.3-19.7-105.4-34.1-154.9-39c-105.6-10.5-146.1,26.1-90.4,81.8
			C515.5,218.2,526.3,227.1,538.6,235.7z"/>
		<path class="st0" d="M562.8,258.1c-1,92.8-28.1,162.6-67.4,163.8c-46.1,1.5-91.4-91.8-101.3-208.4c-3.2-38.3-2.3-74.4,2.2-105.6
			c8.1,53.4,23.2,108.3,43.7,153.7c43.7,96.7,95.7,113.4,116,37.4C559.2,286.8,561.4,273.1,562.8,258.1z"/>
	</g>
	<g>
		<path class="st1" d="M1173.9,505.5c0,11.6-9.1,20.6-20.9,20.6c-11.7,0-21-9.1-21-20.6c0-11.3,9.3-20.4,21-20.4
			C1164.8,485.1,1173.9,494.2,1173.9,505.5z M1137.2,505.5c0,9.1,6.7,16.3,15.9,16.3c8.9,0,15.5-7.2,15.5-16.2
			c0-9.1-6.6-16.4-15.7-16.4S1137.2,496.6,1137.2,505.5z M1149.8,516.2h-4.7v-20.4c1.9-0.4,4.5-0.6,7.8-0.6c3.9,0,5.6,0.6,7.1,1.5
			c1.1,0.9,2,2.5,2,4.5c0,2.2-1.7,4-4.2,4.7v0.2c2,0.7,3.1,2.2,3.7,5c0.6,3.1,1,4.3,1.5,5.1h-5.1c-0.6-0.7-1-2.6-1.6-5
			c-0.4-2.2-1.6-3.2-4.2-3.2h-2.2V516.2z M1149.9,504.7h2.2c2.6,0,4.7-0.9,4.7-3c0-1.9-1.4-3.1-4.3-3.1c-1.2,0-2.1,0.1-2.6,0.2
			V504.7z"/>
	</g>
	<rect x="27.1" y="483.4" class="st2" width="1099.8" height="236.8"/>
	<text transform="matrix(1.2 0 0 1 28.4816 577.6375)"><tspan x="0" y="0" class="st1 st3 st4">Dynamic Network</tspan><tspan x="299" y="106.2" class="st0 st3 st4">Group</tspan></text>
</g>
</svg>
