<?xml version="1.0" encoding="utf-8"?>
<!-- Generator: Adobe Illustrator 23.0.6, SVG Export Plug-In . SVG Version: 6.00 Build 0)  -->
<svg version="1.1" id="Layer_1" xmlns="http://www.w3.org/2000/svg" xmlns:xlink="http://www.w3.org/1999/xlink" x="0px" y="0px"
	 viewBox="0 0 800 800" style="enable-background:new 0 0 800 800;" xml:space="preserve">
<style type="text/css">
	.st0{fill:#FF871D;}
</style>
<g>
	<path class="st0" d="M399.6,336.7C566.8,242.6,719.8,219,762.7,288c50.3,81-70,258.6-268.6,396.9
		c-65.3,45.4-130.9,80.9-191.4,105.3c87.2-69.7,170-153.4,230.1-237.1C660.7,374.8,637,264.5,479.7,306.7
		C454.6,313.4,427.7,323.6,399.6,336.7z"/>
	<path class="st0" d="M328.6,354.2c-165.1-97.8-262-218.5-223.7-290.1c45-84,259-68.7,478,34.2c72,33.8,135.6,72.9,186.9,113.1
		c-103.9-40.7-217.9-70.5-320.3-80.7C231,109,147.4,184.7,262.5,299.8C280.9,318.1,303.2,336.4,328.6,354.2z"/>
	<path class="st0" d="M378.6,400.6c-2.1,191.9-58.2,336.2-139.4,338.8c-95.2,3.1-189-189.9-209.4-431c-6.7-79.2-4.7-153.8,4.4-218.4
		C51.1,200.5,82.3,314,124.7,407.8c90.3,200,197.8,234.6,239.8,77.2C371.3,460,375.9,431.6,378.6,400.6z"/>
</g>
</svg>
